<svg width="15.000000" height="15.000000" viewBox="0 0 15 15" fill="none" xmlns="http://www.w3.org/2000/svg" xmlns:xlink="http://www.w3.org/1999/xlink">
	<desc>
			Created with Pixso.
	</desc>
	<defs/>
	<path id="Vector" d="M12.24 3C12.97 3 13.67 3.29 14.19 3.8C14.71 4.32 15 5.02 15 5.75L15 12.25C15 12.97 14.71 13.67 14.19 14.19C13.67 14.71 12.97 15 12.24 15L5.75 15C5.02 15 4.32 14.71 3.8 14.19C3.28 13.67 3 12.97 3 12.25L3 5.75C3 5.02 3.28 4.32 3.8 3.8C4.32 3.29 5.02 3 5.75 3L12.24 3ZM9.75 0C10.57 0 11.12 0.39 11.53 1.13C11.57 1.22 11.6 1.31 11.62 1.41C11.63 1.51 11.62 1.61 11.59 1.7C11.56 1.8 11.52 1.88 11.46 1.96C11.4 2.04 11.32 2.1 11.23 2.15C11.15 2.2 11.05 2.23 10.96 2.24C10.86 2.25 10.76 2.24 10.66 2.22C10.57 2.19 10.48 2.14 10.4 2.08C10.33 2.02 10.26 1.95 10.21 1.86C10.05 1.56 9.96 1.5 9.75 1.5L2.25 1.5C1.83 1.5 1.5 1.83 1.5 2.25L1.5 9.74C1.5 9.98 1.61 10.21 1.8 10.35L1.88 10.4C1.96 10.45 2.04 10.51 2.1 10.59C2.16 10.67 2.2 10.75 2.23 10.85C2.25 10.94 2.26 11.04 2.25 11.14C2.24 11.24 2.2 11.33 2.16 11.42C2.11 11.5 2.04 11.58 1.96 11.64C1.89 11.7 1.8 11.75 1.7 11.77C1.61 11.8 1.51 11.8 1.41 11.79C1.31 11.78 1.22 11.75 1.13 11.7C0.79 11.5 0.5 11.22 0.3 10.88C0.1 10.53 0 10.14 0 9.75L0 2.25C0 1.01 1.01 0 2.25 0L9.75 0ZM10.71 6.96L8.25 9.43L7.28 8.46C7.13 8.33 6.94 8.25 6.75 8.25C6.55 8.26 6.36 8.33 6.22 8.47C6.08 8.61 6.01 8.8 6 9C6 9.19 6.08 9.38 6.21 9.53L7.71 11.03C7.86 11.17 8.05 11.25 8.25 11.25C8.44 11.25 8.63 11.17 8.78 11.03L11.78 8.03C11.91 7.88 11.99 7.69 11.99 7.5C11.98 7.3 11.91 7.11 11.77 6.97C11.63 6.83 11.44 6.76 11.24 6.75C11.05 6.75 10.86 6.83 10.71 6.96Z" fill="#1F587A" fill-opacity="1.000000" fill-rule="nonzero"/>
</svg>
