<svg width="38" height="43" viewBox="0 0 38 43" fill="none" xmlns="http://www.w3.org/2000/svg">
<path d="M22.6607 41.6444C28.1802 36.9278 38 27.2915 38 18.4485C38 13.5557 35.9982 8.86321 32.435 5.40344C28.8718 1.94368 24.0391 0 19 0C13.9609 0 9.12816 1.94368 5.56497 5.40344C2.00178 8.86321 7.50886e-08 13.5557 0 18.4485C0 27.2915 9.81667 36.9278 15.3393 41.6444C16.3467 42.5175 17.6497 43 19 43C20.3503 43 21.6533 42.5175 22.6607 41.6444ZM12.6667 18.4485C12.6667 16.8176 13.3339 15.2534 14.5217 14.1002C15.7094 12.9469 17.3203 12.299 19 12.299C20.6797 12.299 22.2906 12.9469 23.4783 14.1002C24.6661 15.2534 25.3333 16.8176 25.3333 18.4485C25.3333 20.0795 24.6661 21.6436 23.4783 22.7969C22.2906 23.9501 20.6797 24.598 19 24.598C17.3203 24.598 15.7094 23.9501 14.5217 22.7969C13.3339 21.6436 12.6667 20.0795 12.6667 18.4485Z" fill="#E62028"/>
<path d="M12.6667 18.4485C12.6667 16.8176 13.3339 15.2534 14.5217 14.1002C15.7094 12.9469 17.3203 12.299 19 12.299C20.6797 12.299 22.2906 12.9469 23.4783 14.1002C24.6661 15.2534 25.3333 16.8176 25.3333 18.4485C25.3333 20.0795 24.6661 21.6436 23.4783 22.7969C22.2906 23.9501 20.6797 24.598 19 24.598C17.3203 24.598 15.7094 23.9501 14.5217 22.7969C13.3339 21.6436 12.6667 20.0795 12.6667 18.4485Z" fill="#E62028"/>
<path fill-rule="evenodd" clip-rule="evenodd" d="M20.9514 10.0382C20.1624 10.2394 19.7788 10.4081 19.1319 10.8385C18.891 10.9987 18.7129 11.1308 18.7129 11.1308C18.7129 11.1308 18.5715 11.0108 18.4737 10.9364C17.6731 10.3275 16.3697 9.94432 15.092 9.94206C12.9758 9.93822 11.2339 10.9618 10.2466 12.789C10.0487 13.1553 9.81714 13.7151 9.73198 14.0329C9.53078 14.7844 9.53321 16.1592 9.73705 16.8414C10.109 18.0867 10.4799 18.52 14.7285 22.6715L15.1386 23.0723L18.7362 26.5878L20.2084 25.1583C21.0181 24.3721 21.83 23.4918 21.83 23.4918V24.9544C21.83 25.7475 22.4772 26.3904 23.2756 26.3904H23.8184C24.6526 26.3904 25.3289 25.7186 25.3289 24.89V23.4551H26.8404C27.7114 23.4551 28.4174 22.7537 28.4174 21.8886V21.6034C28.4174 20.7103 27.6886 19.9863 26.7895 19.9863H25.3742V20.9712H27.3994V22.4485H26.0447C26.0133 22.4485 25.9824 22.4485 25.9518 22.4485C25.0455 22.4485 24.3109 23.1784 24.3109 24.0787V25.4524H22.8426V24.0787C22.8426 23.1784 22.1079 22.4485 21.2016 22.4485H19.7958V20.9929H21.2157L21.2938 20.9919C22.1649 20.9804 22.8651 20.2756 22.8651 19.4102V18.0394H27.5567L27.7592 17.1847C28.0123 16.0028 28.079 14.938 27.9106 14.1493C27.7073 13.1963 27.1484 12.2389 26.345 11.4671C24.8608 10.0413 22.9377 9.53185 20.9514 10.0382ZM23.2517 10.9262C24.1556 11.0929 24.8307 11.4592 25.5622 12.1797C26.6316 13.2331 27.0635 14.3443 26.9751 15.8145C26.954 16.1654 26.7972 17.0317 26.7972 17.0317H23.4729C22.5656 17.0317 21.83 17.7624 21.83 18.6637V19.9863H20.4701C20.4614 19.9863 20.4527 19.9863 20.444 19.9863C19.5315 19.9863 18.7921 20.7211 18.7921 21.6276V22.5333C18.7921 23.0627 19.2241 23.4918 19.757 23.4918H20.367C20.367 23.4918 19.9571 23.928 19.5244 24.3463L18.7379 25.1068L15.9175 22.3585L16.1143 22.1431C16.2226 22.0247 17.0663 21.1918 17.9891 20.2923C19.3579 18.9581 19.7341 18.5297 20.0306 17.9673C20.615 16.8591 20.7484 16.2744 20.6915 15.0695C20.6361 13.8949 20.424 13.2245 19.841 12.382L19.4878 11.8715L19.7222 11.694C20.6411 10.9975 22.0164 10.6983 23.2517 10.9262Z" fill="#FFFFFC"/>
</svg>
