<svg width="64" height="64" viewBox="0 0 64 64" fill="none" xmlns="http://www.w3.org/2000/svg">
<rect width="64" height="64" rx="32" fill="#FFFFFC"/>
<path d="M26.3583 30.377H34.3957M30.377 26.3583V34.3957M43 43L37.0748 37.0748M21 30.377C21 31.6084 21.2425 32.8277 21.7138 33.9654C22.185 35.103 22.8757 36.1367 23.7464 37.0075C24.6172 37.8782 25.6509 38.5689 26.7886 39.0401C27.9262 39.5114 29.1456 39.7539 30.377 39.7539C31.6084 39.7539 32.8277 39.5114 33.9654 39.0401C35.103 38.5689 36.1367 37.8782 37.0075 37.0075C37.8782 36.1367 38.5689 35.103 39.0401 33.9654C39.5114 32.8277 39.7539 31.6084 39.7539 30.377C39.7539 29.1456 39.5114 27.9262 39.0401 26.7886C38.5689 25.6509 37.8782 24.6172 37.0075 23.7464C36.1367 22.8757 35.103 22.185 33.9654 21.7138C32.8277 21.2425 31.6084 21 30.377 21C29.1456 21 27.9262 21.2425 26.7886 21.7138C25.6509 22.185 24.6172 22.8757 23.7464 23.7464C22.8757 24.6172 22.185 25.6509 21.7138 26.7886C21.2425 27.9262 21 29.1456 21 30.377Z" stroke="#1F587A" stroke-width="2" stroke-linecap="round" stroke-linejoin="round"/>
</svg>
