<svg width="1240" height="432" viewBox="0 0 1240 432" fill="none" xmlns="http://www.w3.org/2000/svg">
<g clip-path="url(#clip0_1590_38054)">
<rect width="1240" height="432" fill="white"/>
<g opacity="0.2" clip-path="url(#clip1_1590_38054)">
<path d="M1250.72 194.417C1223.41 223.615 1193.27 225.721 1156.61 220.373C1119.95 215.024 1117.79 205.903 1074.77 168.745C1031.76 131.587 948.842 97.566 950.142 42.0148C951.442 -13.5364 1012.96 -69.6092 1081.01 -97.9004C1149.06 -126.192 1233.73 -130.893 1276.79 -93.7833C1319.85 -56.6737 1293.13 20.1839 1287.7 80.2257" stroke="#E62028" stroke-width="2"/>
<path d="M1245.03 187.906C1218.96 215.776 1190.19 217.787 1155.2 212.682C1120.21 207.576 1118.14 198.87 1077.08 163.401C1036.02 127.932 956.872 95.4568 958.113 42.4307C959.354 -10.5955 1018.08 -64.1195 1083.03 -91.1248C1147.99 -118.13 1228.81 -122.618 1269.92 -87.1948C1311.02 -51.772 1285.51 21.5921 1280.32 78.9047" stroke="#E62028" stroke-width="2"/>
<path d="M1239.34 181.394C1214.51 207.937 1187.11 209.852 1153.78 204.99C1120.46 200.128 1118.49 191.836 1079.38 158.056C1040.28 124.276 964.902 93.3471 966.084 42.846C967.266 -7.65509 1023.19 -58.6303 1085.06 -84.3496C1146.92 -110.069 1223.89 -114.343 1263.04 -80.6068C1302.18 -46.8708 1277.89 22.9997 1272.95 77.5832" stroke="#E62028" stroke-width="2"/>
<path d="M1233.64 174.882C1210.06 200.098 1184.03 201.917 1152.37 197.298C1120.71 192.679 1118.84 184.802 1081.69 152.711C1044.54 120.62 972.931 91.2379 974.054 43.2618C975.177 -4.71419 1028.31 -53.1407 1087.08 -77.574C1145.85 -102.007 1218.97 -106.067 1256.16 -74.0183C1293.35 -41.9691 1270.27 24.4079 1265.58 76.2622" stroke="#E62028" stroke-width="2"/>
<path d="M1227.95 168.371C1205.61 192.259 1180.94 193.983 1150.95 189.607C1120.96 185.231 1119.19 177.768 1083.99 147.366C1048.8 116.964 980.961 89.1287 982.025 43.6777C983.089 -1.77326 1033.42 -47.651 1089.1 -70.7984C1144.78 -93.9458 1214.05 -97.7922 1249.28 -67.4298C1284.51 -37.0674 1262.65 25.8161 1258.21 74.9412" stroke="#E62028" stroke-width="2"/>
<path d="M1222.26 161.859C1201.16 184.421 1177.86 186.048 1149.54 181.916C1121.21 177.783 1119.54 170.735 1086.3 142.022C1053.06 113.309 988.991 87.0195 989.996 44.0936C991.001 1.16764 1038.54 -42.1613 1091.12 -64.0227C1143.71 -85.8842 1209.13 -89.5169 1242.41 -60.8413C1275.68 -32.1657 1255.03 27.2242 1250.83 73.6202" stroke="#E62028" stroke-width="2"/>
<path d="M1216.57 155.347C1196.71 176.582 1174.78 178.114 1148.13 174.224C1121.47 170.334 1119.89 163.701 1088.61 136.677C1057.32 109.653 997.021 84.9098 997.967 44.5089C998.913 4.10807 1043.65 -36.6721 1093.15 -57.2476C1142.64 -77.8231 1204.21 -81.2421 1235.53 -54.2533C1266.85 -27.2645 1247.41 28.6319 1243.46 72.2987" stroke="#E62028" stroke-width="2"/>
<path d="M1210.88 148.836C1192.26 168.743 1171.7 170.179 1146.71 166.533C1121.72 162.886 1120.24 156.667 1090.91 131.332C1061.58 105.997 1005.05 82.8006 1005.94 44.9248C1006.82 7.04897 1048.77 -31.1825 1095.17 -50.472C1141.57 -69.7615 1199.3 -72.9668 1228.65 -47.6648C1258.01 -22.3628 1239.79 30.0401 1236.09 70.9777" stroke="#E62028" stroke-width="2"/>
<path d="M1205.19 142.324C1187.81 160.904 1168.62 162.245 1145.3 158.841C1121.97 155.438 1120.59 149.633 1093.22 125.987C1065.84 102.341 1013.08 80.6914 1013.91 45.3406C1014.74 9.98989 1053.88 -25.6928 1097.19 -43.6963C1140.49 -61.6998 1194.37 -64.6915 1221.78 -41.0763C1249.18 -17.4611 1232.17 31.4483 1228.72 69.6567" stroke="#E62028" stroke-width="2"/>
<path d="M1199.49 135.812C1183.36 153.065 1165.54 154.31 1143.88 151.149C1122.22 147.989 1120.94 142.599 1095.52 120.642C1070.11 98.6853 1021.11 78.5817 1021.88 45.756C1022.65 12.9303 1059 -20.2036 1099.21 -36.9212C1139.42 -53.6387 1189.46 -56.4167 1214.9 -34.4883C1240.34 -12.5599 1224.55 32.8559 1221.34 68.3352" stroke="#E62028" stroke-width="2"/>
<path d="M1193.8 129.301C1178.91 145.226 1162.46 146.375 1142.47 143.458C1122.47 140.541 1121.29 135.566 1097.83 115.298C1074.37 95.0297 1029.14 76.4725 1029.85 46.1719C1030.56 15.8712 1064.11 -14.7139 1101.23 -30.1455C1138.35 -45.5771 1184.54 -48.1414 1208.02 -27.8998C1231.51 -7.6582 1216.93 34.2641 1213.97 67.0142" stroke="#E62028" stroke-width="2"/>
<path d="M1188.11 122.789C1174.46 137.388 1159.38 138.441 1141.06 135.767C1122.73 133.093 1121.64 128.532 1100.14 109.953C1078.63 91.374 1037.17 74.3633 1037.82 46.5877C1038.47 18.8121 1069.23 -9.22427 1103.26 -23.3699C1137.28 -37.5155 1179.62 -39.8661 1201.15 -21.3113C1222.68 -2.75651 1209.31 35.6723 1206.6 65.6932" stroke="#E62028" stroke-width="2"/>
<path d="M1182.42 116.277C1170 129.549 1156.3 130.506 1139.64 128.075C1122.98 125.644 1121.99 121.498 1102.44 104.608C1082.89 87.7184 1045.2 72.2541 1045.79 47.0036C1046.38 21.753 1074.34 -3.7346 1105.28 -16.5943C1136.21 -29.4539 1174.7 -31.5908 1194.27 -14.7228C1213.84 2.14518 1201.69 37.0804 1199.23 64.3722" stroke="#E62028" stroke-width="2"/>
<path d="M1176.73 109.765C1165.55 121.71 1153.22 122.572 1138.23 120.384C1123.23 118.196 1122.34 114.464 1104.75 99.2633C1087.15 84.0623 1053.23 70.1444 1053.76 47.4189C1054.29 24.6934 1079.46 1.75459 1107.3 -9.81911C1135.14 -21.3928 1169.78 -23.316 1187.39 -8.13482C1205.01 7.04638 1194.07 38.4881 1191.85 63.0507" stroke="#E62028" stroke-width="2"/>
<path d="M1171.03 103.254C1161.1 113.871 1150.14 114.637 1136.81 112.692C1123.48 110.747 1122.69 107.431 1107.05 93.9186C1091.41 80.4066 1061.26 68.0352 1061.73 47.8348C1062.21 27.6343 1084.58 7.24427 1109.32 -3.04347C1134.07 -13.3312 1164.86 -15.0407 1180.51 -1.54633C1196.17 11.9481 1186.46 39.8963 1184.48 61.7297" stroke="#E62028" stroke-width="2"/>
<path d="M1165.34 96.7424C1156.65 106.032 1147.06 106.703 1135.4 105.001C1123.74 103.299 1123.04 100.397 1109.36 88.574C1095.67 76.751 1069.29 65.926 1069.7 48.2506C1070.12 30.5753 1089.69 12.7339 1111.34 3.73216C1133 -5.26961 1159.94 -6.76543 1173.64 5.04217C1187.34 16.8498 1178.84 41.3044 1177.11 60.4087" stroke="#E62028" stroke-width="2"/>
<path d="M1159.65 90.2309C1152.2 98.1938 1143.98 98.7682 1133.98 97.3096C1123.99 95.851 1123.4 93.3634 1111.66 83.2294C1099.93 73.0954 1077.32 63.8168 1077.68 48.6665C1078.03 33.5162 1094.81 18.2236 1113.37 10.5078C1131.93 2.792 1155.02 1.50986 1166.76 11.6307C1178.5 21.7515 1171.22 42.7126 1169.74 59.0877" stroke="#E62028" stroke-width="2"/>
<path d="M1153.96 83.7188C1147.75 90.3546 1140.9 90.8333 1132.57 89.6178C1124.24 88.4023 1123.75 86.3293 1113.97 77.8843C1104.19 69.4393 1085.35 61.7071 1085.65 49.0819C1085.94 36.4566 1099.92 23.7128 1115.39 17.283C1130.85 10.8531 1150.1 9.78466 1159.88 18.2187C1169.67 26.6527 1163.6 44.1203 1162.36 57.7662" stroke="#E62028" stroke-width="2"/>
<path d="M1148.27 77.2073C1143.3 82.5159 1137.82 82.8989 1131.16 81.9264C1124.49 80.954 1124.1 79.2956 1116.28 72.5396C1108.46 65.7836 1093.38 59.5979 1093.62 49.4977C1093.85 39.3975 1105.04 29.2025 1117.41 24.0586C1129.78 18.9147 1145.18 18.06 1153.01 24.8072C1160.84 31.5544 1155.98 45.5285 1154.99 56.4452" stroke="#E62028" stroke-width="2"/>
<path d="M1142.58 70.6958C1138.85 74.6772 1134.74 74.9644 1129.74 74.2351C1124.74 73.5058 1124.45 72.262 1118.58 67.195C1112.72 62.128 1101.41 57.4887 1101.59 49.9136C1101.76 42.3384 1110.15 34.6921 1119.43 30.8342C1128.71 26.9763 1140.26 26.3353 1146.13 31.3957C1152 36.4561 1148.36 46.9366 1147.62 55.1241" stroke="#E62028" stroke-width="2"/>
<path d="M1136.88 64.1837C1134.4 66.838 1131.66 67.0295 1128.33 66.5433C1125 66.0571 1124.8 65.2279 1120.89 61.8499C1116.98 58.4719 1109.44 55.379 1109.56 50.3289C1109.68 45.2788 1115.27 40.1813 1121.46 37.6094C1127.64 35.0374 1135.34 34.6101 1139.25 37.9837C1143.17 41.3573 1140.74 48.3443 1140.24 53.8027" stroke="#E62028" stroke-width="2"/>
<path d="M1131.19 57.6722C1129.95 58.9993 1128.58 59.0951 1126.91 58.852C1125.25 58.6089 1125.15 58.1943 1123.19 56.5053C1121.24 54.8163 1117.47 53.2699 1117.53 50.7448C1117.59 48.2197 1120.38 45.671 1123.48 44.385C1126.57 43.099 1130.42 42.8854 1132.38 44.5722C1134.33 46.259 1133.12 49.7525 1132.87 52.4816" stroke="#E62028" stroke-width="2"/>
</g>
<g opacity="0.2" clip-path="url(#clip2_1590_38054)">
<path d="M514.475 43.7712C495.179 64.4352 473.881 65.926 447.981 62.1408C422.082 58.3556 420.549 51.9001 390.157 25.6021C359.766 -0.6959 301.182 -24.7741 302.101 -64.0897C303.019 -103.405 346.484 -143.09 394.567 -163.113C442.649 -183.136 502.472 -186.463 532.896 -160.199C563.32 -133.935 544.439 -79.5402 540.601 -37.0464" stroke="#E62028" stroke-width="2"/>
<path d="M510.453 39.1627C492.034 58.8874 471.704 60.3104 446.982 56.6973C422.259 53.0841 420.796 46.9221 391.786 21.8195C362.776 -3.28318 306.855 -26.2669 307.732 -63.7954C308.609 -101.324 350.098 -139.205 395.995 -158.317C441.892 -177.43 498.996 -180.606 528.037 -155.536C557.078 -130.466 539.054 -78.5437 535.391 -37.9814" stroke="#E62028" stroke-width="2"/>
<path d="M506.432 34.5541C488.89 53.3396 469.528 54.6949 445.983 51.2538C422.438 47.8127 421.045 41.9441 393.416 18.0368C365.787 -5.87047 312.529 -27.7597 313.364 -63.5012C314.199 -99.2427 353.713 -135.32 397.425 -153.522C441.136 -171.725 495.52 -174.749 523.178 -150.873C550.836 -126.997 533.671 -77.5471 530.183 -38.9164" stroke="#E62028" stroke-width="2"/>
<path d="M502.41 29.9456C485.746 47.7918 467.351 49.0793 444.983 45.8103C422.616 42.5412 421.292 36.9661 395.045 14.2542C368.797 -8.45775 318.202 -29.2526 318.996 -63.207C319.789 -97.1613 357.327 -131.435 398.853 -148.727C440.379 -166.019 492.044 -168.893 518.319 -146.21C544.594 -123.528 528.287 -76.5506 524.973 -39.8514" stroke="#E62028" stroke-width="2"/>
<path d="M498.389 25.3371C482.602 42.244 465.175 43.4638 443.985 40.3668C422.794 37.2698 421.54 31.9881 396.674 10.4715C371.808 -11.045 323.876 -30.7454 324.628 -62.9127C325.38 -95.08 360.942 -127.549 400.282 -143.932C439.622 -160.314 488.568 -163.036 513.461 -141.548C538.353 -120.059 522.904 -75.554 519.764 -40.7864" stroke="#E62028" stroke-width="2"/>
<path d="M494.367 20.7286C479.457 36.6962 462.998 37.8482 442.985 34.9233C422.972 31.9983 421.788 27.01 398.303 6.68883C374.819 -13.6324 329.549 -32.2382 330.259 -62.6185C330.969 -92.9987 364.556 -123.664 401.711 -139.136C438.865 -154.608 485.092 -157.179 508.601 -136.885C532.11 -116.59 517.52 -74.5575 514.555 -41.7214" stroke="#E62028" stroke-width="2"/>
<path d="M490.346 16.1201C476.313 31.1485 460.823 32.2327 441.987 29.4798C423.151 26.7269 422.036 22.032 399.933 2.9062C377.83 -16.2196 335.223 -33.731 335.892 -62.3242C336.56 -90.9174 368.171 -119.779 403.14 -134.341C438.109 -148.903 481.617 -151.323 503.743 -132.222C525.869 -113.121 512.137 -73.5609 509.346 -42.6564" stroke="#E62028" stroke-width="2"/>
<path d="M486.324 11.5116C473.168 25.6007 458.646 26.6171 440.987 24.0363C423.328 21.4555 422.283 17.054 401.562 -0.876443C380.84 -18.8069 340.897 -35.2239 341.523 -62.03C342.149 -88.836 371.785 -115.894 404.568 -129.546C437.352 -143.198 478.14 -145.466 498.884 -127.559C519.627 -109.652 506.753 -72.5644 504.137 -43.5914" stroke="#E62028" stroke-width="2"/>
<path d="M482.303 6.90304C470.024 20.0529 456.47 21.0016 439.988 18.5928C423.507 16.184 422.532 12.076 403.191 -4.6591C383.851 -21.3942 346.571 -36.7167 347.155 -61.7357C347.74 -86.7547 375.4 -112.009 405.997 -124.75C436.595 -137.492 474.665 -139.609 494.025 -122.896C513.386 -106.183 501.37 -71.5678 498.928 -44.5263" stroke="#E62028" stroke-width="2"/>
<path d="M478.281 2.29406C466.879 14.5046 454.293 15.3855 438.989 13.1488C423.685 10.9121 422.779 7.09752 404.82 -8.44222C386.861 -23.982 352.244 -38.21 352.787 -61.4419C353.329 -84.6739 379.013 -108.124 407.426 -119.956C435.838 -131.787 471.188 -133.753 489.166 -118.234C507.143 -102.714 495.986 -70.5718 493.719 -45.4618" stroke="#E62028" stroke-width="2"/>
<path d="M474.259 -2.31447C463.734 8.9568 452.116 9.76996 437.989 7.70529C423.862 5.64063 423.026 2.11949 406.449 -12.2249C389.872 -26.5693 357.917 -39.7028 358.418 -61.1477C358.919 -82.5926 382.627 -104.239 408.854 -115.16C435.081 -126.082 467.712 -127.897 484.306 -113.571C500.901 -99.2452 490.602 -69.5752 488.509 -46.3968" stroke="#E62028" stroke-width="2"/>
<path d="M470.238 -6.92298C460.59 3.40903 449.94 4.15441 436.991 2.2618C424.041 0.36919 423.275 -2.85853 408.079 -16.0075C392.883 -29.1565 363.591 -41.1956 364.05 -60.8534C364.51 -80.5112 386.242 -100.354 410.283 -110.365C434.325 -120.376 464.236 -122.04 479.448 -108.908C494.66 -95.7761 485.219 -68.5787 483.3 -47.3318" stroke="#E62028" stroke-width="2"/>
</g>
<g opacity="0.2" clip-path="url(#clip3_1590_38054)">
<path d="M221.721 622.417C194.411 651.615 164.266 653.721 127.61 648.373C90.954 643.024 88.785 633.903 45.7708 596.745C2.75663 559.587 -80.1581 525.566 -78.8579 470.015C-77.5577 414.464 -16.0403 358.391 52.0118 330.1C120.064 301.808 204.733 297.107 247.792 334.217C290.852 371.326 264.128 448.184 258.697 508.226" stroke="#E62028" stroke-width="2"/>
<path d="M216.029 615.906C189.961 643.776 161.186 645.787 126.196 640.682C91.2063 635.576 89.1359 626.87 48.0769 591.401C7.01787 555.932 -72.128 523.457 -70.8869 470.431C-69.6458 417.405 -10.9246 363.881 54.0342 336.875C118.993 309.87 199.813 305.382 240.915 340.805C282.018 376.228 256.509 449.592 251.324 506.905" stroke="#E62028" stroke-width="2"/>
<path d="M210.337 609.394C185.51 635.937 158.106 637.852 124.782 632.99C91.4585 628.128 89.4867 619.836 50.3829 586.056C11.2791 552.276 -64.098 521.347 -62.9159 470.846C-61.7339 420.345 -5.809 369.37 56.0566 343.65C117.922 317.931 194.894 313.657 234.039 347.393C273.184 381.129 248.89 451 243.952 505.583" stroke="#E62028" stroke-width="2"/>
<path d="M204.645 602.882C181.059 628.098 155.025 629.917 123.368 625.298C91.7099 620.679 89.8366 612.802 52.688 580.711C15.5394 548.62 -56.0688 519.238 -54.9459 471.262C-53.823 423.286 -0.694334 374.859 58.078 350.426C116.85 325.993 189.973 321.933 227.161 353.982C264.349 386.031 241.27 452.408 236.579 504.262" stroke="#E62028" stroke-width="2"/>
<path d="M198.953 596.371C176.609 620.259 151.945 621.983 121.954 617.607C91.9621 613.231 90.1875 605.768 54.994 575.366C19.8006 544.964 -48.0387 517.129 -46.9749 471.678C-45.9111 426.227 4.4213 380.349 60.1003 357.202C115.779 334.054 185.054 330.208 220.284 360.57C255.515 390.933 233.65 453.816 229.206 502.941" stroke="#E62028" stroke-width="2"/>
<path d="M193.261 589.859C172.158 612.421 148.865 614.048 120.54 609.916C92.2143 605.783 90.5383 598.735 57.3001 570.022C24.0618 541.309 -40.0087 515.019 -39.0039 472.094C-37.9992 429.168 9.53695 385.839 62.1227 363.977C114.708 342.116 180.134 338.483 213.408 367.159C246.681 395.834 226.031 455.224 221.834 501.62" stroke="#E62028" stroke-width="2"/>
<path d="M187.57 583.347C167.708 604.582 145.785 606.114 119.126 602.224C92.4666 598.334 90.8892 591.701 59.6061 564.677C28.3231 537.653 -31.9786 512.91 -31.033 472.509C-30.0873 432.108 14.6526 391.328 64.1451 370.752C113.638 350.177 175.215 346.758 206.531 373.747C237.847 400.736 218.412 456.632 214.461 500.299" stroke="#E62028" stroke-width="2"/>
<path d="M181.878 576.836C163.258 596.743 142.705 598.179 117.712 594.533C92.7189 590.886 91.2401 584.667 61.9122 559.332C32.5843 533.997 -23.9485 510.801 -23.062 472.925C-22.1755 435.049 19.7682 396.818 66.1674 377.528C112.567 358.239 170.295 355.033 199.654 380.335C229.013 405.637 210.792 458.04 207.089 498.978" stroke="#E62028" stroke-width="2"/>
<path d="M176.185 570.324C158.806 588.904 139.624 590.245 116.297 586.841C92.9702 583.438 91.5899 577.633 64.2173 553.987C36.8446 530.341 -15.9193 508.691 -15.0919 473.341C-14.2645 437.99 24.8829 402.307 68.1888 384.304C111.495 366.3 165.375 363.308 192.776 386.924C220.178 410.539 203.172 459.448 199.716 497.657" stroke="#E62028" stroke-width="2"/>
<path d="M170.494 563.812C154.356 581.065 136.543 582.31 114.883 579.149C93.2225 575.989 91.9408 570.599 66.5233 548.642C41.1058 526.685 -7.88926 506.582 -7.12095 473.756C-6.35265 440.93 29.9986 407.796 70.2112 391.079C110.424 374.361 160.455 371.583 185.9 393.512C211.344 415.44 195.553 460.856 192.343 496.335" stroke="#E62028" stroke-width="2"/>
<path d="M164.802 557.301C149.906 573.226 133.463 574.375 113.469 571.458C93.4747 568.541 92.2917 563.566 68.8294 543.298C45.3671 523.03 0.140837 504.473 0.85004 474.172C1.55924 443.871 35.1142 413.286 72.2335 397.854C109.353 382.423 155.536 379.859 179.023 400.1C202.51 420.342 187.934 462.264 184.971 495.014" stroke="#E62028" stroke-width="2"/>
<path d="M159.11 550.789C145.455 565.388 130.383 566.441 112.055 563.767C93.727 561.093 92.6425 556.532 71.1354 537.953C49.6283 519.374 8.17093 502.363 8.82103 474.588C9.47114 446.812 40.2298 418.776 74.2559 404.63C108.282 390.484 150.616 388.134 172.146 406.689C193.676 425.243 180.314 463.672 177.598 493.693" stroke="#E62028" stroke-width="2"/>
<path d="M153.418 544.277C141.004 557.549 127.302 558.506 110.64 556.075C93.9783 553.644 92.9924 549.498 73.4405 532.608C53.8886 515.718 16.2 500.254 16.791 475.004C17.3821 449.753 45.3445 424.265 76.2773 411.406C107.21 398.546 145.696 396.409 165.268 413.277C184.841 430.145 172.694 465.08 170.225 492.372" stroke="#E62028" stroke-width="2"/>
<path d="M147.726 537.765C136.554 549.71 124.222 550.572 109.226 548.384C94.2306 546.196 93.3433 542.464 75.7465 527.263C58.1498 512.062 24.2301 498.144 24.762 475.419C25.2939 452.693 50.4602 429.755 78.2997 418.181C106.139 406.607 140.776 404.684 158.392 419.865C176.007 435.046 165.075 466.488 162.853 491.051" stroke="#E62028" stroke-width="2"/>
<path d="M142.034 531.254C132.104 541.871 121.142 542.637 107.812 540.692C94.4828 538.747 93.6941 535.431 78.0526 521.919C62.4111 508.407 32.2602 496.035 32.733 475.835C33.2058 455.634 55.5758 435.244 80.322 424.957C105.068 414.669 135.857 412.959 151.515 426.454C167.173 439.948 157.455 467.896 155.48 489.73" stroke="#E62028" stroke-width="2"/>
<path d="M136.343 524.742C127.653 534.032 118.062 534.703 106.398 533.001C94.7351 531.299 94.045 528.397 80.3586 516.574C66.6723 504.751 40.2903 493.926 40.704 476.251C41.1177 458.575 60.6914 440.734 82.3444 431.732C103.997 422.73 130.937 421.235 144.638 433.042C158.339 444.85 149.836 469.304 148.108 488.409" stroke="#E62028" stroke-width="2"/>
<path d="M130.651 518.231C123.203 526.194 114.982 526.768 104.985 525.31C94.9874 523.851 94.3958 521.363 82.6647 511.229C70.9335 501.095 48.3204 491.817 48.675 476.667C49.0296 461.516 65.8071 446.224 84.3668 438.508C102.926 430.792 126.018 429.51 137.761 439.631C149.505 449.751 142.217 470.713 140.735 487.088" stroke="#E62028" stroke-width="2"/>
</g>
</g>
<defs>
<clipPath id="clip0_1590_38054">
<rect width="1240" height="432" fill="white"/>
</clipPath>
<clipPath id="clip1_1590_38054">
<rect width="351" height="349" fill="white" transform="translate(950 -126)"/>
</clipPath>
<clipPath id="clip2_1590_38054">
<rect width="248" height="247" fill="white" transform="translate(302 -183)"/>
</clipPath>
<clipPath id="clip3_1590_38054">
<rect width="351" height="349" fill="white" transform="translate(-79 302)"/>
</clipPath>
</defs>
</svg>
