<svg width="40.000000" height="38.000000" viewBox="0 0 40 38" fill="none" xmlns="http://www.w3.org/2000/svg" xmlns:xlink="http://www.w3.org/1999/xlink">
	<desc>
			Created with Pixso.
	</desc>
	<defs/>
	<path id="Vector" d="M22.77 36.32L22.77 29.5C22.77 28.57 23.51 27.82 24.41 27.82C27.64 27.82 29.4 24.44 29.64 17.75L24.41 17.75C23.51 17.75 22.77 17 22.77 16.08L22.77 1.67C22.77 0.75 23.51 0 24.41 0L38.36 0C39.26 0 40 0.75 40 1.67L40 16.08C40 19.28 39.68 22.22 39.06 24.82C38.42 27.48 37.44 29.8 36.15 31.73C34.82 33.71 33.15 35.27 31.2 36.35C29.24 37.44 26.95 38 24.41 38C23.51 37.99 22.77 37.24 22.77 36.32ZM1.63 27.82C0.73 27.82 0 28.57 0 29.5L0 36.32C0 37.24 0.73 37.99 1.63 37.99C4.17 37.99 6.46 37.44 8.42 36.35C10.38 35.27 12.04 33.71 13.37 31.73C14.66 29.8 15.64 27.48 16.28 24.81C16.9 22.22 17.22 19.28 17.22 16.08L17.22 1.67C17.22 0.74 16.48 0 15.58 0L1.63 0C0.73 0 0 0.75 0 1.67L0 16.08C0 17 0.73 17.75 1.63 17.75L6.79 17.75C6.55 24.43 4.82 27.82 1.63 27.82Z" fill="#E62028" fill-opacity="1.000000" fill-rule="nonzero"/>
</svg>
