<svg width="58" height="94" viewBox="0 0 58 94" fill="none" xmlns="http://www.w3.org/2000/svg">
<g opacity="0.4" clip-path="url(#clip0_1471_8971)">
<path d="M23.1916 225.162C4.28491 245.427 -16.5844 246.889 -41.9618 243.177C-67.3392 239.465 -68.8408 233.134 -98.6198 207.345C-128.399 181.555 -185.801 157.943 -184.901 119.387C-184.001 80.8319 -141.412 41.9145 -94.2991 22.279C-47.1861 2.64338 11.4308 -0.619492 41.2412 25.1365C71.0515 50.8924 52.5509 104.235 48.7905 145.908" stroke="#E62028" stroke-width="2"/>
<path d="M19.251 220.643C1.2037 239.986 -18.717 241.382 -42.9408 237.838C-67.1647 234.295 -68.5981 228.252 -97.0235 203.635C-125.449 179.018 -180.242 156.478 -179.383 119.676C-178.524 82.8727 -137.871 45.7244 -92.8992 26.9813C-47.9277 8.23825 8.02479 5.12369 36.4801 29.7089C64.9354 54.2942 47.2757 105.213 43.6864 144.99" stroke="#E62028" stroke-width="2"/>
<path d="M15.3106 216.124C-1.87732 234.546 -20.8494 235.875 -43.9198 232.5C-66.9901 229.126 -68.3552 223.371 -95.4271 199.926C-122.499 176.481 -174.683 155.015 -173.865 119.964C-173.046 84.9141 -134.329 49.5347 -91.4992 31.6841C-48.6692 13.8336 4.61893 10.8674 31.7192 34.2819C58.8196 57.6964 42.0008 106.19 38.5823 144.074" stroke="#E62028" stroke-width="2"/>
<path d="M11.3701 211.604C-4.95848 229.105 -22.982 230.368 -44.8988 227.162C-66.8156 223.956 -68.1125 218.489 -93.8308 196.216C-119.549 173.943 -169.124 153.551 -168.347 120.253C-167.569 86.9549 -130.788 53.3445 -90.0992 36.3865C-49.4107 19.4285 1.213 16.6105 26.9583 38.8543C52.7036 61.0981 36.7257 107.167 33.4782 143.157" stroke="#E62028" stroke-width="2"/>
<path d="M7.42949 207.085C-8.03965 223.665 -25.1145 224.861 -45.8779 221.824C-66.6412 218.787 -67.8697 213.607 -92.2344 192.507C-116.599 171.406 -163.565 152.087 -162.828 120.542C-162.092 88.9963 -127.246 57.1548 -88.6993 41.0893C-50.1523 25.0238 -2.19301 22.3542 22.1973 43.4273C46.5876 64.5003 31.4507 108.145 28.374 142.24" stroke="#E62028" stroke-width="2"/>
<path d="M3.48902 202.565C-11.1207 218.224 -27.247 219.354 -46.8568 216.485C-66.4666 213.617 -67.6269 208.725 -90.638 188.797C-113.649 168.869 -158.006 150.623 -157.31 120.83C-156.614 91.0371 -123.705 60.9646 -87.2993 45.7916C-50.8938 30.6187 -5.59888 28.0974 17.4364 47.9997C40.4717 67.9021 26.1757 109.122 23.27 141.323" stroke="#E62028" stroke-width="2"/>
<path d="M-0.451521 198.046C-14.2019 212.783 -29.3796 213.847 -47.8358 211.147C-66.2921 208.447 -67.3842 203.843 -89.0417 185.087C-110.699 166.331 -152.446 149.158 -151.792 121.118C-151.137 93.0779 -120.163 64.7744 -85.8994 50.494C-51.6354 36.2136 -9.00486 33.8406 12.6754 52.5722C34.3556 71.3038 20.9006 110.099 18.1659 140.406" stroke="#E62028" stroke-width="2"/>
<path d="M-4.39212 193.526C-17.2831 207.343 -31.5121 208.34 -48.8149 205.809C-66.1176 203.278 -67.1415 198.962 -87.4454 181.378C-107.749 163.794 -146.887 147.695 -146.274 121.407C-145.66 95.1193 -116.622 68.5847 -84.4994 55.1968C-52.3769 41.8089 -12.4109 39.5842 7.91437 57.1451C28.2396 74.706 15.6255 111.076 13.0617 139.489" stroke="#E62028" stroke-width="2"/>
<path d="M-8.33267 189.007C-20.3642 201.902 -33.6447 202.833 -49.7939 200.471C-65.9432 198.108 -66.8987 194.08 -85.849 177.668C-104.799 161.257 -141.328 146.231 -140.755 121.695C-140.183 97.1601 -113.081 72.3945 -83.0995 59.8992C-53.1185 47.4038 -15.8168 45.3274 3.15339 61.7176C22.1236 78.1077 10.3505 112.053 7.95753 138.572" stroke="#E62028" stroke-width="2"/>
<path d="M-12.2731 184.488C-23.4453 196.462 -35.7771 197.326 -50.7729 195.133C-65.7686 192.939 -66.6559 189.198 -84.2526 173.959C-101.849 158.72 -135.769 144.767 -135.237 121.984C-134.705 99.2015 -109.539 76.2048 -81.6995 64.602C-53.86 52.9991 -19.2227 51.0711 -1.60749 66.2905C16.0077 81.5099 5.07551 113.031 2.85351 137.655" stroke="#E62028" stroke-width="2"/>
<path d="M-16.2137 179.968C-26.5264 191.021 -37.9097 191.819 -51.7519 189.794C-65.5941 187.769 -66.4132 184.316 -82.6563 170.249C-98.8994 156.182 -130.21 143.303 -129.719 122.272C-129.228 101.242 -105.998 80.0146 -80.2996 69.3043C-54.6015 58.594 -22.6287 56.8143 -6.36848 70.863C9.89172 84.9117 -0.19954 114.008 -2.25062 136.738" stroke="#E62028" stroke-width="2"/>
</g>
<defs>
<clipPath id="clip0_1471_8971">
<rect width="243" height="245" fill="white" transform="translate(-185)"/>
</clipPath>
</defs>
</svg>
