<svg width="30" height="31" viewBox="0 0 30 31" fill="none" xmlns="http://www.w3.org/2000/svg">
<path d="M0 15.5C0 7.2155 6.714 0.5 15 0.5C23.283 0.5 30 7.2155 30 15.5C30 23.7845 23.283 30.5 15 30.5C6.714 30.5 0 23.7845 0 15.5Z" fill="#FC3F1D"/>
<path d="M16.92 8.999H15.534C12.993 8.999 11.6565 10.286 11.6565 12.1835C11.6565 14.3285 12.5805 15.3335 14.478 16.622L16.0455 17.678L11.541 24.4085H8.175L12.2175 18.3875C9.8925 16.721 8.5875 15.1025 8.5875 12.365C8.5875 8.933 10.98 6.59 15.5175 6.59H20.022V24.392H16.92V8.999Z" fill="white"/>
</svg>
