<svg width="431" height="250" viewBox="0 0 431 250" fill="none" xmlns="http://www.w3.org/2000/svg">
<path d="M133.165 7.4375L106.39 72.0718H117.292V50.3128H151.123V72.0718H163.95V98.6669H151.123V120.588H117.292V98.6669H69.3516V74.4894L98.213 7.4375H133.165Z" fill="#1F587A"/>
<path d="M259.353 64.0133C259.353 101.086 243.159 121.556 213.978 121.556C184.476 121.556 168.441 101.086 168.441 64.0133C168.441 26.941 184.476 6.4707 213.978 6.4707C243.159 6.4707 259.353 26.941 259.353 64.0133ZM203.555 64.0133C203.555 87.7069 205.961 96.4106 213.978 96.4106C221.836 96.4106 224.24 87.7069 224.24 64.0133C224.24 40.1584 221.836 31.6151 213.978 31.6151C205.961 31.6151 203.555 40.1584 203.555 64.0133Z" fill="#1F587A"/>
<path d="M331.025 7.4375L304.249 72.0718H315.151V50.3128H348.982V72.0718H361.809V98.6669H348.982V120.588H315.151V98.6669H267.211V74.4894L296.071 7.4375H331.025Z" fill="#1F587A"/>
<path d="M191.06 250C203.809 250 214.144 246.094 214.144 241.275C214.144 236.456 203.809 232.55 191.06 232.55C178.311 232.55 167.977 236.456 167.977 241.275C167.977 246.094 178.311 250 191.06 250Z" fill="#B3EFF4"/>
<path d="M241.252 250C254 250 264.335 246.094 264.335 241.275C264.335 236.456 254 232.55 241.252 232.55C228.503 232.55 218.168 236.456 218.168 241.275C218.168 246.094 228.503 250 241.252 250Z" fill="#B3EFF4"/>
<path d="M429.999 189.164C429.999 189.164 334.079 204.126 319.791 163.43C306.006 124.167 305.624 93.4341 296.793 85.6748" stroke="#485F66" stroke-miterlimit="10"/>
<path d="M1 189.164C1 189.164 97.0831 204.126 111.371 163.43C125.156 124.167 125.538 93.4341 134.369 85.6748" stroke="#485F66" stroke-miterlimit="10"/>
<path d="M239.305 203.4L235.338 230.069H226.559L222.586 203.4H239.305Z" fill="#395156"/>
<path d="M235.352 203.4L231.386 230.069H226.559L222.586 203.4H235.352Z" fill="#485F66"/>
<path d="M234.189 245.936L249.117 242.162L235.896 229.472H226.598V233.845L234.189 245.936Z" fill="#395156"/>
<path d="M237.914 191.977L226.847 193.767L226.166 193.878L221.244 194.672L221.092 194.071L212.664 160.927L219.133 160.063L219.814 159.973L228.703 158.792L232.518 158.28L237.914 191.977Z" fill="#395156"/>
<path d="M234.016 191.976L222.949 193.765L222.268 193.876L221.092 194.069L212.664 160.926L219.133 160.061L219.814 159.972L228.703 158.79L234.016 191.976Z" fill="#485F66"/>
<path d="M221.062 197.925L239.031 195.016L238.335 190.667L220.365 193.577L221.062 197.925Z" fill="#395156"/>
<path d="M239.892 199.226L237.156 199.523L221.799 201.196L221.324 196.814L236.682 195.141L239.418 194.845L239.892 199.226Z" fill="#395156"/>
<path d="M236.69 195.144L221.332 196.816L221.804 201.198L237.162 199.526L236.69 195.144Z" fill="#485F66"/>
<path d="M221.828 205.16L239.969 203.665L239.611 199.276L221.47 200.77L221.828 205.16Z" fill="#395156"/>
<path d="M249.115 242.161V245.42L234.188 245.935L249.115 242.161Z" fill="#485F66"/>
<path d="M231.094 233.868L230.407 233.931L227.431 199.951L226.165 193.876L219.133 160.061L219.813 159.972L226.846 193.765L228.111 199.846L231.094 233.868Z" fill="#395156"/>
<path d="M206.41 203.4L202.443 230.069H193.658L189.691 203.4H206.41Z" fill="#395156"/>
<path d="M203.2 203.4L199.233 230.069H193.658L189.691 203.4H203.2Z" fill="#485F66"/>
<path d="M194.806 245.935L179.879 242.161L193.559 229.354L202.399 229.471V233.844L194.806 245.935Z" fill="#395156"/>
<path d="M216.588 160.927L208.009 194.672L204.757 194.147L203.692 193.974L203.018 193.864L191.332 191.977L196.659 158.723L196.728 158.28L210.044 160.056L210.731 160.146L216.588 160.927Z" fill="#395156"/>
<path d="M213.206 160.926L204.757 194.146L203.692 193.973L203.018 193.863L191.332 191.976L196.659 158.722L206.662 160.055L207.349 160.145L213.206 160.926Z" fill="#485F66"/>
<path d="M208.617 193.572L207.923 197.92L189.953 195.01L190.647 190.663L203.262 192.709L203.936 192.812L208.617 193.572Z" fill="#395156"/>
<path d="M207.67 196.814L207.203 201.196L204.143 200.863L189.109 199.226L189.576 194.845L204.611 196.482L207.67 196.814Z" fill="#395156"/>
<path d="M204.611 196.482L204.143 200.863L189.109 199.226L189.576 194.845L204.611 196.482Z" fill="#485F66"/>
<path d="M207.508 200.793L189.367 199.298L189.009 203.687L207.15 205.182L207.508 200.793Z" fill="#395156"/>
<path d="M179.879 242.161V245.391L194.806 245.935L179.879 242.161Z" fill="#485F66"/>
<path d="M201.459 203.4H202.146L199.809 230.069H199.121L201.459 203.4Z" fill="#395156"/>
<path d="M210.734 160.145L203.935 192.813L203.262 192.709L210.047 160.056L210.734 160.145Z" fill="#395156"/>
<path d="M214.598 2.25977H213.523V19.0187H214.598V2.25977Z" fill="#6D8189"/>
<path d="M219.237 23.7981H209.57V22.9132C209.57 20.2299 211.734 18.0537 214.404 18.0537C217.074 18.0537 219.238 20.229 219.238 22.9132V23.7981H219.237Z" fill="#485F66"/>
<path d="M260.584 101.901L265.414 108.905L289.882 91.8539L285.052 84.8493L260.584 101.901Z" fill="#485F66"/>
<path d="M232.123 104.388L259.657 111.118L262.117 102.089L230.535 88.6582L232.123 104.388Z" fill="#485F66"/>
<path d="M256.23 106.338C256.23 109.105 258.462 111.348 261.215 111.348C263.967 111.348 266.199 109.105 266.199 106.338C266.199 103.571 263.967 101.327 261.215 101.327C258.462 101.327 256.23 103.571 256.23 106.338Z" fill="#6D8189"/>
<path d="M258.262 106.337C258.262 107.975 259.582 109.304 261.212 109.304C262.841 109.304 264.162 107.975 264.162 106.337C264.162 104.699 262.842 103.371 261.212 103.371C259.583 103.372 258.262 104.699 258.262 106.337Z" fill="#485F66"/>
<path d="M289.494 74.1113L286.482 77.3147C283.063 80.9494 283.225 86.6844 286.84 90.1198C290.456 93.5561 296.16 93.3948 299.578 89.7593L302.59 86.555L299.155 83.2903L296.254 86.3756C294.627 88.1058 291.92 88.1817 290.199 86.5464C288.478 84.911 288.396 82.1837 290.022 80.4535L292.923 77.3682L289.494 74.1113Z" fill="#6D8189"/>
<path d="M143.237 84.8294L138.406 91.834L162.874 108.885L167.704 101.881L143.237 84.8294Z" fill="#485F66"/>
<path d="M196.167 104.388L168.632 111.118L166.172 102.088L197.754 89.04L196.167 104.388Z" fill="#485F66"/>
<path d="M231.267 28.2199V69.4978C231.267 74.0036 227.63 77.659 223.148 77.659H205.872C201.39 77.659 197.754 74.0036 197.754 69.4978V30.1821C197.754 26.0291 200.854 22.5384 204.959 22.0761L219.402 20.4382L222.241 20.113C227.053 19.567 231.267 23.3544 231.267 28.2199Z" fill="#63797F"/>
<path d="M225.079 28.2202V69.4981C225.079 74.0039 221.443 77.6593 216.961 77.6593H205.872C201.39 77.6593 197.754 74.0039 197.754 69.4981V30.1824C197.754 26.0294 200.854 22.5387 204.959 22.0764L219.402 20.4385C222.667 21.4683 225.079 24.5294 225.079 28.2202Z" fill="#6D8189"/>
<path d="M220.498 81.8633H207.666C207.223 81.8633 206.863 81.5019 206.863 81.0569V78.408C206.863 77.963 207.223 77.6016 207.666 77.6016H220.498C220.94 77.6016 221.3 77.963 221.3 78.408V81.0569C221.3 81.5019 220.94 81.8633 220.498 81.8633Z" fill="#485F66"/>
<path d="M219.579 85.8371H208.582C208.17 85.8371 207.836 85.5015 207.836 85.0875V82.3257C207.836 81.9117 208.17 81.5762 208.582 81.5762H219.579C219.99 81.5762 220.325 81.9117 220.325 82.3257V85.0875C220.325 85.5015 219.99 85.8371 219.579 85.8371Z" fill="#395156"/>
<path d="M220.251 89.7237H207.905C207.47 89.7237 207.117 89.3692 207.117 88.9319V86.2537C207.117 85.8164 207.47 85.4619 207.905 85.4619H220.251C220.686 85.4619 221.038 85.8164 221.038 86.2537V88.9319C221.038 89.3692 220.686 89.7237 220.251 89.7237Z" fill="#485F66"/>
<path d="M237.811 98.9646L236.168 133.926L236.134 134.617L235.171 155.059L234.903 160.843L234.476 169.862H194.887L194.461 160.843L194.192 155.059L193.065 131.1L193.03 130.409L191.552 98.9655C191.278 93.209 195.368 88.3711 200.51 88.3711H228.853C233.996 88.3711 238.087 93.2081 237.811 98.9646Z" fill="#63797F"/>
<path d="M229.218 98.9646L227.575 133.926L227.541 134.617L226.578 155.059L226.31 160.843L225.883 169.862H194.887L194.461 160.843L194.192 155.059L193.065 131.1L193.03 130.409L191.552 98.9655C191.278 93.209 195.368 88.3711 200.51 88.3711H220.26C225.403 88.3711 229.493 93.2081 229.218 98.9646Z" fill="#6D8189"/>
<path d="M172.058 106.338C172.058 109.105 169.826 111.348 167.074 111.348C164.321 111.348 162.09 109.105 162.09 106.338C162.09 103.571 164.321 101.327 167.074 101.327C169.827 101.327 172.058 103.571 172.058 106.338Z" fill="#6D8189"/>
<path d="M167.077 108.887C168.477 108.887 169.612 107.746 169.612 106.339C169.612 104.932 168.477 103.791 167.077 103.791C165.678 103.791 164.543 104.932 164.543 106.339C164.543 107.746 165.678 108.887 167.077 108.887Z" fill="#485F66"/>
<path d="M138.796 74.1113L141.808 77.3147C145.226 80.9494 145.065 86.6844 141.45 90.1198C137.834 93.5561 132.13 93.3948 128.712 89.7593L125.699 86.555L129.135 83.2903L132.036 86.3756C133.662 88.1058 136.369 88.1817 138.09 86.5464C139.812 84.911 139.894 82.1837 138.267 80.4535L135.366 77.3682L138.796 74.1113Z" fill="#6D8189"/>
<path d="M215.613 1.59826C215.613 2.48062 214.901 3.19652 214.023 3.19652C213.146 3.19652 212.434 2.48062 212.434 1.59826C212.434 0.715894 213.146 0 214.023 0C214.901 0 215.613 0.715031 215.613 1.59826Z" fill="#FFC84D"/>
<path d="M225.338 62.9747C217.891 58.3102 210.444 67.6392 202.996 62.9747C202.996 62.1976 202.996 61.4196 202.996 60.6424C210.444 65.307 217.891 55.9779 225.338 60.6424C225.338 61.4196 225.338 62.1976 225.338 62.9747Z" fill="#485F66"/>
<path d="M212.223 51.144C215.311 48.0404 215.311 43.0084 212.223 39.9049C209.136 36.8013 204.13 36.8013 201.043 39.9049C197.956 43.0085 197.956 48.0404 201.043 51.144C204.13 54.2475 209.136 54.2475 212.223 51.144Z" fill="#63797F"/>
<path d="M229.626 47.3697C230.633 43.099 228.006 38.8161 223.758 37.8035C219.51 36.7909 215.249 39.4321 214.242 43.7028C213.235 47.9735 215.862 52.2564 220.11 53.269C224.358 54.2816 228.619 51.6404 229.626 47.3697Z" fill="#63797F"/>
<path d="M222.266 37.5762H206.562V53.4605H222.266V37.5762Z" fill="#63797F"/>
<path d="M208.581 41.377H204.973V49.7564H208.581V41.377Z" fill="#1F587A"/>
<path d="M208.195 42.0254H205.359V49.1085H208.195V42.0254Z" fill="#5682A5"/>
<path d="M224.309 41.377H220.699V49.7564H224.309V41.377Z" fill="#1F587A"/>
<path d="M201.5 40.0725L200.418 38.6132L209.303 31.3662L211.105 34.5101L201.5 40.0725Z" fill="#485F66"/>
<path d="M227.785 40.0725L228.867 38.6132L219.981 31.3662L218.18 34.5101L227.785 40.0725Z" fill="#485F66"/>
<path d="M229.492 101.673H199.359V120.678H229.492V101.673Z" fill="#63797F"/>
<path d="M226.566 103.517H202.277V118.835H226.566V103.517Z" fill="#485F66"/>
<path d="M224.364 106.597H204.488V107.562H224.364V106.597Z" fill="#5682A5"/>
<path d="M221.253 109.256H207.598V110.221H221.253V109.256Z" fill="#5682A5"/>
<path d="M222.756 111.628H206.098V112.593H222.756V111.628Z" fill="#5682A5"/>
<path d="M236.168 133.927L236.134 134.618H219.635V126.207H205.027V131.101H193.066L193.031 130.41H204.34V125.517H220.323V133.927H236.168Z" fill="#485F66"/>
<path d="M204.686 131.851C205.382 131.851 205.947 131.283 205.947 130.583C205.947 129.884 205.382 129.316 204.686 129.316C203.99 129.316 203.426 129.884 203.426 130.583C203.426 131.283 203.99 131.851 204.686 131.851Z" fill="#485F66"/>
<path d="M205.547 125.746C205.547 126.223 205.162 126.61 204.688 126.61C204.213 126.61 203.828 126.224 203.828 125.746C203.828 125.269 204.213 124.882 204.688 124.882C205.163 124.882 205.547 125.269 205.547 125.746Z" fill="#485F66"/>
<path d="M220.841 125.746C220.841 126.223 220.456 126.61 219.981 126.61C219.506 126.61 219.121 126.224 219.121 125.746C219.121 125.269 219.505 124.882 219.981 124.882C220.455 124.883 220.841 125.269 220.841 125.746Z" fill="#485F66"/>
<path d="M220.841 134.04C220.841 134.517 220.456 134.904 219.981 134.904C219.506 134.904 219.121 134.517 219.121 134.04C219.121 133.563 219.505 133.177 219.981 133.177C220.455 133.176 220.841 133.563 220.841 134.04Z" fill="#485F66"/>
<path d="M223.89 42.0254H221.055V49.1085H223.89V42.0254Z" fill="#5682A5"/>
<path d="M235.563 160.76H193.629V173.458H235.563V160.76Z" fill="#395156"/>
<path d="M221.318 160.76H193.629V173.458H221.318V160.76Z" fill="#485F66"/>
<path d="M235.169 155.06L234.902 160.845H194.459L194.191 155.06H235.169Z" fill="#63797F"/>
<path d="M134.367 85.6751C134.69 85.3922 135.023 85.1395 135.368 84.9178C145.192 78.6334 144.968 102.647 144.968 102.647" stroke="#485F66" stroke-miterlimit="10"/>
<path d="M143.931 106.267H142.926V109.998H143.931V106.267Z" fill="#485F66"/>
<path d="M147.364 106.267H146.359V109.998H147.364V106.267Z" fill="#485F66"/>
<path d="M148.832 104.779V107.472H141.465V104.779C141.465 102.733 143.108 101.071 145.144 101.071C146.162 101.071 147.082 101.484 147.751 102.157C147.841 102.247 147.93 102.346 148.011 102.444C148.529 103.083 148.832 103.9 148.832 104.779Z" fill="#485F66"/>
<path d="M148.833 104.78V107.473H142.52V105.677C142.52 103.63 144.171 101.97 146.207 101.97C146.859 101.97 147.475 102.141 148.011 102.446C148.529 103.083 148.833 103.9 148.833 104.78Z" fill="#6D8189"/>
<path d="M296.793 85.6751C296.471 85.3922 296.138 85.1395 295.792 84.9178C285.969 78.6334 286.192 102.647 286.192 102.647" stroke="#485F66" stroke-miterlimit="10"/>
<path d="M282.328 104.779V107.472H289.695V104.779C289.695 102.733 288.052 101.071 286.016 101.071C284.997 101.071 284.078 101.484 283.408 102.157C283.319 102.247 283.23 102.346 283.149 102.444C282.632 103.083 282.328 103.9 282.328 104.779Z" fill="#485F66"/>
<path d="M282.328 104.78V107.473H288.641V105.677C288.641 103.63 286.989 101.97 284.954 101.97C284.302 101.97 283.685 102.141 283.15 102.446C282.632 103.083 282.328 103.9 282.328 104.78Z" fill="#6D8189"/>
<path d="M141.713 122.852L140.818 122.914L140.648 120.936L139.746 123.866L140.642 123.803L140.811 125.782L141.713 122.852Z" fill="#E62028"/>
<path d="M157.598 113.824L156.716 114.864L154.406 112.953L156.606 117.037L157.488 115.998L159.799 117.909L157.598 113.824Z" fill="#E62028"/>
<path d="M153.809 123.631L152.327 124.458L150.461 121.213L151.255 126.947L152.736 126.12L154.603 129.365L153.809 123.631Z" fill="#E62028"/>
<path d="M277.823 112.262L277.062 111.785L278.077 110.081L275.64 111.925L276.402 112.402L275.387 114.105L277.823 112.262Z" fill="#E62028"/>
<path d="M295.957 114.294L294.637 114.617L293.878 111.708L293.281 116.314L294.602 115.99L295.361 118.9L295.957 114.294Z" fill="#E62028"/>
<path d="M287.173 120.013L285.491 119.812L285.868 116.082L283.172 121.198L284.854 121.399L284.477 125.129L287.173 120.013Z" fill="#E62028"/>
</svg>
