<svg width="146" height="55" viewBox="0 0 146 55" fill="none" xmlns="http://www.w3.org/2000/svg">
<path fill-rule="evenodd" clip-rule="evenodd" d="M24.818 0.425439C23.0955 0.87397 22.2582 1.25005 20.8459 2.20946C20.3201 2.56657 19.9313 2.86098 19.9313 2.86098C19.9313 2.86098 19.6226 2.59358 19.409 2.42769C17.6614 1.07046 14.8162 0.216213 12.0269 0.211164C7.40733 0.202601 3.60476 2.48433 1.44948 6.55755C1.01754 7.37404 0.51199 8.62193 0.326083 9.33041C-0.113151 11.0055 -0.107846 14.0702 0.337136 15.5909C1.14907 18.3669 1.95879 19.3327 11.2333 28.5871L12.1287 29.4805L19.9822 37.3171L23.1959 34.1307C24.9634 32.378 26.7359 30.4157 26.7359 30.4157V35.6333C26.7359 36.3202 27.2971 36.8772 27.9894 36.8772H33.1204C33.8127 36.8772 34.3739 36.3202 34.3739 35.6333V30.3338H39.8625C40.5548 30.3338 41.1161 29.7769 41.1161 29.0899V23.8454C41.1161 23.1584 40.5548 22.6015 39.8625 22.6015H34.4727V24.7969H38.8938V28.0901H35.9366C34.8736 28.0901 34.0259 28.0901 33.4045 28.0901C32.7122 28.0901 32.1517 28.647 32.1517 29.334V34.7862H28.9464V29.334C28.9464 28.647 28.3852 28.0901 27.6929 28.0901H22.2953V24.8452H25.3949L27.7589 24.8135C28.4445 24.8043 28.9955 24.2501 28.9955 23.5697V18.2615H39.2371L39.6792 16.3561C40.2318 13.7216 40.3773 11.3478 40.0097 9.58969C39.5658 7.46537 38.3458 5.33117 36.592 3.61082C33.352 0.432465 29.154 -0.703242 24.818 0.425439ZM29.8395 2.40508C31.8126 2.77655 33.2863 3.59304 34.8832 5.19923C37.2178 7.54748 38.1606 10.0244 37.9676 13.3018C37.9215 14.084 37.5792 16.0151 37.5792 16.0151H27.9894C27.2971 16.0151 26.7359 16.5712 26.7359 17.2582C26.7359 17.8511 26.7359 18.6522 26.7359 19.6532V22.6015H23.7673C22.7601 22.6015 21.9538 22.6015 21.3569 22.6015C20.6646 22.6015 20.1042 23.1584 20.1042 23.8454V29.1718C20.1042 29.8588 20.6655 30.4157 21.3578 30.4157H23.5423C23.5423 30.4157 22.6475 31.3881 21.7029 32.3205L19.986 34.0158L13.8289 27.8894L14.2587 27.4093C14.495 27.1454 16.3368 25.2887 18.3513 23.2836C21.3393 20.3094 22.1605 19.3544 22.8077 18.1008C24.0836 15.6302 24.3748 14.327 24.2505 11.6411C24.1296 9.0226 23.6665 7.52816 22.3939 5.65017L21.6229 4.51227L22.1346 4.11643C24.1405 2.56381 27.1428 1.89705 29.8395 2.40508Z" fill="#CE1C24"/>
<path d="M48.9739 27.2561L52.3538 14.5352C53.2695 11.0699 56.2499 9.33284 61.2951 9.32394H68.5531C68.8853 9.32394 69.1591 9.44865 69.3745 9.69808C69.599 9.94751 69.7112 10.237 69.7112 10.5666V27.2561C69.7112 27.6035 69.5855 27.8975 69.3341 28.138C69.0828 28.3696 68.782 28.4854 68.4319 28.4854H65.9004C65.5323 28.4854 65.2271 28.3696 64.9847 28.138C64.7513 27.8975 64.6346 27.5946 64.6346 27.2294V23.8621H55.0604L54.1582 27.2294C54.0685 27.5946 53.8665 27.8975 53.5523 28.138C53.2381 28.3696 52.9059 28.4854 52.5558 28.4854H49.9031C49.553 28.4854 49.3016 28.3874 49.149 28.1914C48.9964 27.9865 48.9201 27.8084 48.9201 27.6569C48.929 27.5055 48.947 27.3719 48.9739 27.2561ZM56.0569 20.0805H64.6346V13.1055H60.7969C59.935 13.1055 59.181 13.3504 58.5346 13.8404C57.8972 14.3214 57.4663 14.9717 57.2419 15.7913L56.0569 20.0805Z" fill="#1F1F1F"/>
<path d="M71.9465 27.6035L74.3703 17.8891C75.0526 15.19 77.3059 13.8404 81.1301 13.8404H87.4994C87.7328 13.8404 87.9258 13.9206 88.0784 14.0809C88.24 14.2323 88.3208 14.4283 88.3208 14.6688V27.6703C88.3208 27.9019 88.24 28.0979 88.0784 28.2582C87.9258 28.4097 87.7328 28.4854 87.4994 28.4854H84.4831C84.2497 28.4854 84.0522 28.4097 83.8906 28.2582C83.738 28.0979 83.6617 27.9019 83.6617 27.6703V17.074H81.1301C79.8733 17.074 79.0788 17.7288 78.7467 19.0383L76.6326 27.4966C76.5518 27.7906 76.3902 28.0311 76.1478 28.2182C75.9144 28.3963 75.663 28.4854 75.3937 28.4854H72.6332C72.3909 28.4854 72.2068 28.4141 72.0811 28.2716C71.9644 28.1202 71.9061 27.991 71.9061 27.8841C71.9061 27.7772 71.9196 27.6837 71.9465 27.6035Z" fill="#1F1F1F"/>
<path d="M91.6334 27.6703V14.6688C91.6334 14.4283 91.7097 14.2323 91.8623 14.0809C92.0239 13.9206 92.2214 13.8404 92.4548 13.8404H95.4711C95.7045 13.8404 95.8976 13.9206 96.0502 14.0809C96.2118 14.2323 96.2925 14.4283 96.2925 14.6688V18.6909H100.373C102.285 18.6909 103.766 19.065 104.816 19.8133C105.867 20.5616 106.392 21.8221 106.392 23.5948C106.392 25.3586 105.867 26.6147 104.816 27.363C103.766 28.1113 102.285 28.4854 100.373 28.4854H92.4548C92.2214 28.4854 92.0239 28.4097 91.8623 28.2582C91.7097 28.0979 91.6334 27.9019 91.6334 27.6703ZM96.2925 25.4522H99.9552C100.512 25.4522 100.943 25.2918 101.248 24.9711C101.562 24.6504 101.719 24.1917 101.719 23.5948C101.719 22.9891 101.562 22.5258 101.248 22.2051C100.943 21.8845 100.512 21.7241 99.9552 21.7241H96.2925V25.4522Z" fill="#1F1F1F"/>
<path d="M109.718 26.5345C108.326 25.2963 107.631 23.5013 107.631 21.1495C107.631 18.7978 108.326 17.0117 109.718 15.7913C111.118 14.5708 113.143 13.9206 115.791 13.8404V10.1524C115.791 9.91188 115.867 9.7159 116.02 9.56446C116.181 9.40411 116.383 9.32394 116.626 9.32394H119.629C119.871 9.32394 120.069 9.40411 120.221 9.56446C120.374 9.7159 120.45 9.91188 120.45 10.1524V13.8404C123.098 13.9116 125.118 14.5619 126.51 15.7913C127.91 17.0117 128.61 18.7978 128.61 21.1495C128.61 23.5013 127.91 25.2963 126.51 26.5345C125.118 27.7638 123.098 28.4141 120.45 28.4854V32.1734C120.45 32.4139 120.369 32.6099 120.208 32.7613C120.055 32.9217 119.862 33.0018 119.629 33.0018H116.626C116.383 33.0018 116.181 32.9217 116.02 32.7613C115.867 32.6099 115.791 32.4139 115.791 32.1734V28.4854C113.143 28.4141 111.118 27.7638 109.718 26.5345ZM113.165 17.8357C112.582 18.5305 112.29 19.6351 112.29 21.1495C112.29 22.6639 112.582 23.773 113.165 24.4767C113.758 25.1805 114.66 25.5413 115.872 25.5591V16.7667C114.66 16.7845 113.758 17.1409 113.165 17.8357ZM120.369 25.5591C121.581 25.5413 122.479 25.1805 123.062 24.4767C123.655 23.773 123.951 22.6639 123.951 21.1495C123.951 19.6351 123.655 18.535 123.062 17.8491C122.479 17.1542 121.581 16.7934 120.369 16.7667V25.5591Z" fill="#1F1F1F"/>
<path d="M131.761 27.5233C130.576 26.7038 129.984 25.5457 129.984 24.0491C129.984 22.5526 130.576 21.4034 131.761 20.6017C132.955 19.7999 134.49 19.3991 136.367 19.3991H140.824C140.824 18.3568 140.604 17.6308 140.164 17.221C139.724 16.8113 138.952 16.6064 137.848 16.6064C136.753 16.6064 135.981 16.8781 135.532 17.4215C135.092 17.956 134.549 18.2232 133.902 18.2232H131.896C131.654 18.2232 131.452 18.1475 131.29 17.996C131.137 17.8357 131.061 17.6397 131.061 17.4081C131.061 14.8515 133.507 13.5731 138.4 13.5731C140.536 13.5731 142.251 14.0497 143.544 15.0029C144.837 15.9472 145.483 17.4126 145.483 19.3991V27.6703C145.483 27.9108 145.407 28.1068 145.254 28.2582C145.101 28.4097 144.904 28.4854 144.661 28.4854H142.063C141.82 28.4854 141.623 28.4097 141.47 28.2582C141.318 28.0979 141.241 27.9019 141.241 27.6703V27.2561C139.823 28.2627 138.184 28.7616 136.326 28.7527C134.477 28.7527 132.955 28.3429 131.761 27.5233ZM136.69 22.4323C136.061 22.4323 135.563 22.5837 135.195 22.8866C134.836 23.1895 134.656 23.5815 134.656 24.0625C134.656 24.5435 134.845 24.94 135.222 25.2517C135.599 25.5635 136.133 25.7194 136.824 25.7194C138.207 25.7194 139.54 25.3186 140.824 24.5168V22.4323H136.69Z" fill="#1F1F1F"/>
<path d="M1.26333 52.4928V44.1314H2.16823V47.8339H6.85725V44.1314H7.76214V52.4928H6.85725V48.6736H2.16823V52.4928H1.26333Z" fill="#1F1F1F" fill-opacity="0.6"/>
<path d="M11.1937 49.21L13.4207 48.8485C13.4207 48.4248 13.2855 48.0808 13.0153 47.8165C12.745 47.5521 12.3983 47.42 11.9752 47.42C11.6697 47.42 11.3817 47.4899 11.1114 47.6299C10.8451 47.7659 10.6512 47.9059 10.5297 48.0497L10.3476 48.2538L9.80698 47.7173C9.83048 47.6862 9.86182 47.6474 9.90099 47.6007C9.94408 47.5502 10.0342 47.4647 10.1713 47.3442C10.3123 47.2198 10.4592 47.109 10.612 47.0118C10.7648 46.9146 10.9645 46.8291 11.2113 46.7552C11.462 46.6775 11.7167 46.6386 11.9752 46.6386C12.6333 46.6386 13.1778 46.8505 13.6087 47.2742C14.0435 47.6979 14.261 48.2227 14.261 48.8485V52.4928H13.4207V51.7173C13.405 51.7406 13.3796 51.7736 13.3443 51.8164C13.313 51.8553 13.2385 51.9272 13.121 52.0321C13.0074 52.1332 12.884 52.2245 12.7508 52.3062C12.6176 52.3839 12.4414 52.4539 12.222 52.5161C12.0065 52.5783 11.7833 52.6094 11.5521 52.6094C10.9763 52.6094 10.4905 52.4403 10.0949 52.1021C9.70317 51.7639 9.5073 51.3771 9.5073 50.9418C9.5073 50.4636 9.65224 50.0788 9.94213 49.7873C10.232 49.4918 10.6492 49.2994 11.1937 49.21ZM11.5521 51.8339C12.0966 51.8339 12.5432 51.657 12.8919 51.3033C13.2444 50.9495 13.4207 50.4908 13.4207 49.9272V49.5657L11.4346 49.9272C10.7138 50.0633 10.3515 50.4014 10.3476 50.9418C10.3476 51.1983 10.4533 51.4121 10.6649 51.5831C10.8803 51.7503 11.1761 51.8339 11.5521 51.8339Z" fill="#1F1F1F" fill-opacity="0.6"/>
<path d="M17.6514 48.0847C17.2322 48.5239 17.0227 49.039 17.0227 49.6298C17.0227 50.2168 17.2322 50.7319 17.6514 51.175C18.0745 51.6142 18.5465 51.8339 19.0675 51.8339C19.565 51.8339 20.0096 51.6201 20.4013 51.1925C20.797 50.761 20.9948 50.2401 20.9948 49.6298C20.9948 49.0157 20.797 48.4948 20.4013 48.0672C20.0096 47.6357 19.565 47.42 19.0675 47.42C18.5465 47.42 18.0745 47.6415 17.6514 48.0847ZM17.0227 51.5948V55H16.1824V46.7611H17.0227V47.659C17.0383 47.6357 17.0657 47.6007 17.1049 47.5541C17.148 47.5035 17.2322 47.42 17.3576 47.3033C17.4869 47.1867 17.6259 47.0837 17.7748 46.9943C17.9236 46.901 18.1136 46.8194 18.3447 46.7494C18.5798 46.6756 18.8207 46.6386 19.0675 46.6386C19.8039 46.6386 20.4483 46.9321 21.0007 47.5191C21.5569 48.106 21.8351 48.8096 21.8351 49.6298C21.8351 50.4461 21.5589 51.1478 21.0066 51.7348C20.4542 52.3178 19.8079 52.6094 19.0675 52.6094C18.8207 52.6094 18.5817 52.5744 18.3506 52.5044C18.1234 52.4344 17.9315 52.3509 17.7748 52.2537C17.6181 52.1565 17.481 52.0593 17.3635 51.9622C17.2499 51.8611 17.1637 51.7756 17.1049 51.7056L17.0227 51.5948Z" fill="#1F1F1F" fill-opacity="0.6"/>
<path d="M24.1796 50.8835V52.4928H23.3393V46.7611H24.1796V49.8048L27.0647 46.7611H28.093L25.866 49.0876L28.3339 52.4928H27.3702L25.3254 49.6881L24.1796 50.8835Z" fill="#1F1F1F" fill-opacity="0.6"/>
<path d="M33.1757 51.1983C33.5909 50.7707 33.7985 50.2479 33.7985 49.6298C33.7985 49.0079 33.5909 48.4851 33.1757 48.0613C32.7644 47.6338 32.2688 47.42 31.6891 47.42C31.1132 47.42 30.6177 47.6338 30.2024 48.0613C29.7911 48.4851 29.5855 49.0059 29.5855 49.624C29.5855 50.2382 29.7911 50.761 30.2024 51.1925C30.6177 51.6201 31.1132 51.8339 31.6891 51.8339C32.2688 51.8339 32.7644 51.622 33.1757 51.1983ZM29.6031 51.7464C29.0312 51.1711 28.7452 50.4656 28.7452 49.6298C28.7452 48.7902 29.0312 48.0827 29.6031 47.5074C30.1789 46.9282 30.8762 46.6386 31.6949 46.6386C32.5136 46.6386 33.209 46.9282 33.7809 47.5074C34.3528 48.0827 34.6388 48.7902 34.6388 49.6298C34.6388 50.4656 34.3528 51.1711 33.7809 51.7464C33.209 52.3217 32.5136 52.6094 31.6949 52.6094C30.8762 52.6094 30.1789 52.3217 29.6031 51.7464Z" fill="#1F1F1F" fill-opacity="0.6"/>
<path d="M36.7483 46.7611H40.9613V52.4928H40.1152V47.5366H37.5885V48.4345C37.5885 49.278 37.5454 49.9816 37.4592 50.5453C37.377 51.105 37.2516 51.5326 37.0832 51.828C36.9147 52.1196 36.7287 52.3237 36.525 52.4403C36.3213 52.553 36.0745 52.6094 35.7846 52.6094C35.6867 52.6094 35.5868 52.5997 35.4849 52.5802C35.387 52.5608 35.3145 52.5394 35.2675 52.5161L35.1853 52.4928V51.659C35.3459 51.7367 35.5065 51.7756 35.6671 51.7756C35.9139 51.7756 36.1078 51.7056 36.2488 51.5657C36.3898 51.4257 36.5073 51.1031 36.6014 50.5977C36.6993 50.0924 36.7483 49.3713 36.7483 48.4345V46.7611Z" fill="#1F1F1F" fill-opacity="0.6"/>
<path d="M46.8902 51.1983C47.3054 50.7707 47.513 50.2479 47.513 49.6298C47.513 49.0079 47.3054 48.4851 46.8902 48.0613C46.4788 47.6338 45.9833 47.42 45.4035 47.42C44.8277 47.42 44.3322 47.6338 43.9169 48.0613C43.5056 48.4851 43.3 49.0059 43.3 49.624C43.3 50.2382 43.5056 50.761 43.9169 51.1925C44.3322 51.6201 44.8277 51.8339 45.4035 51.8339C45.9833 51.8339 46.4788 51.622 46.8902 51.1983ZM43.3176 51.7464C42.7457 51.1711 42.4597 50.4656 42.4597 49.6298C42.4597 48.7902 42.7457 48.0827 43.3176 47.5074C43.8934 46.9282 44.5907 46.6386 45.4094 46.6386C46.2281 46.6386 46.9235 46.9282 47.4954 47.5074C48.0673 48.0827 48.3533 48.7902 48.3533 49.6298C48.3533 50.4656 48.0673 51.1711 47.4954 51.7464C46.9235 52.3217 46.2281 52.6094 45.4094 52.6094C44.5907 52.6094 43.8934 52.3217 43.3176 51.7464Z" fill="#1F1F1F" fill-opacity="0.6"/>
<path d="M53.7122 46.7611V47.5366H50.7037V52.4928H49.8634V46.7611H53.7122Z" fill="#1F1F1F" fill-opacity="0.6"/>
<path d="M59.1298 46.7611H59.8525V52.4928H59.0064V48.1955L55.5161 52.4928H54.7992V46.7611H55.6395V51.0584L59.1298 46.7611Z" fill="#1F1F1F" fill-opacity="0.6"/>
<path d="M65.5052 52.4928V50.1663C65.0626 50.485 64.522 50.6444 63.8834 50.6444C63.2253 50.6444 62.6887 50.4403 62.2734 50.0322C61.8621 49.6201 61.6565 49.0876 61.6565 48.4345V46.7611H62.4967V48.4345C62.4967 48.8466 62.6319 49.1886 62.9022 49.4607C63.1725 49.729 63.5191 49.8631 63.9422 49.8631C64.2321 49.8631 64.5063 49.8203 64.7648 49.7348C65.0273 49.6454 65.2153 49.554 65.3289 49.4607L65.5052 49.3266V46.7611H66.3513V52.4928H65.5052Z" fill="#1F1F1F" fill-opacity="0.6"/>
<path d="M73.3907 49.9389L68.6959 49.9272C68.7272 50.4442 68.9407 50.8912 69.3363 51.2683C69.7359 51.6453 70.204 51.8339 70.7407 51.8339C71.1011 51.8339 71.436 51.7542 71.7455 51.5948C72.0549 51.4354 72.2743 51.2761 72.4036 51.1167L72.6092 50.8835L73.1498 51.4199C73.1263 51.451 73.0911 51.4957 73.0441 51.554C73.001 51.6084 72.903 51.7037 72.7503 51.8397C72.6014 51.9719 72.4388 52.0904 72.2626 52.1954C72.0902 52.2965 71.865 52.3917 71.5868 52.4811C71.3126 52.5666 71.0306 52.6094 70.7407 52.6094C69.9533 52.6094 69.2756 52.3198 68.7076 51.7406C68.1396 51.1575 67.8556 50.452 67.8556 49.624C67.8556 48.796 68.1357 48.0924 68.6959 47.5133C69.2599 46.9302 69.922 46.6386 70.6819 46.6386C71.4693 46.6386 72.1274 46.9107 72.6563 47.4549C73.1851 47.9953 73.4495 48.6794 73.4495 49.5074L73.3907 49.9389ZM71.9746 47.9272C71.6182 47.5891 71.1873 47.42 70.6819 47.42C70.1766 47.42 69.7359 47.5968 69.3598 47.9506C68.9838 48.3043 68.7625 48.7241 68.6959 49.21H72.6092C72.5466 48.693 72.335 48.2654 71.9746 47.9272Z" fill="#1F1F1F" fill-opacity="0.6"/>
<path d="M75.3827 51.7406C74.8147 51.1575 74.5307 50.452 74.5307 49.624C74.5307 48.796 74.8147 48.0924 75.3827 47.5133C75.9546 46.9302 76.6323 46.6386 77.4158 46.6386C77.8663 46.6386 78.2854 46.7358 78.6732 46.9302C79.065 47.1206 79.3451 47.3111 79.5135 47.5016L79.7662 47.7756L79.1609 48.3704C79.1453 48.3471 79.1218 48.314 79.0904 48.2713C79.0591 48.2285 78.9886 48.1508 78.8789 48.038C78.7731 47.9253 78.6576 47.8281 78.5322 47.7465C78.4069 47.661 78.2443 47.5852 78.0445 47.5191C77.8447 47.453 77.6352 47.42 77.4158 47.42C76.8634 47.42 76.3836 47.6338 75.9762 48.0613C75.5727 48.4851 75.3709 49.0079 75.3709 49.6298C75.3709 50.2479 75.5727 50.7707 75.9762 51.1983C76.3836 51.622 76.8634 51.8339 77.4158 51.8339C77.7527 51.8339 78.0719 51.7542 78.3736 51.5948C78.6752 51.4354 78.8946 51.2761 79.0317 51.1167L79.2256 50.8835L79.8249 51.4199C79.8014 51.451 79.7642 51.4957 79.7133 51.554C79.6663 51.6084 79.5644 51.7037 79.4077 51.8397C79.251 51.9719 79.0865 52.0904 78.9142 52.1954C78.7418 52.2965 78.5185 52.3917 78.2443 52.4811C77.974 52.5666 77.6978 52.6094 77.4158 52.6094C76.6284 52.6094 75.9507 52.3198 75.3827 51.7406Z" fill="#1F1F1F" fill-opacity="0.6"/>
<path d="M81.9873 50.8835V52.4928H81.147V46.7611H81.9873V49.8048L84.8724 46.7611H85.9007L83.6737 49.0876L86.1416 52.4928H85.1779L83.1331 49.6881L81.9873 50.8835Z" fill="#1F1F1F" fill-opacity="0.6"/>
<path d="M88.4861 49.21L90.7131 48.8485C90.7131 48.4248 90.5779 48.0808 90.3076 47.8165C90.0373 47.5521 89.6907 47.42 89.2676 47.42C88.962 47.42 88.6741 47.4899 88.4038 47.6299C88.1375 47.7659 87.9435 47.9059 87.8221 48.0497L87.64 48.2538L87.0994 47.7173C87.1229 47.6862 87.1542 47.6474 87.1934 47.6007C87.2365 47.5502 87.3266 47.4647 87.4637 47.3442C87.6047 47.2198 87.7516 47.109 87.9044 47.0118C88.0571 46.9146 88.2569 46.8291 88.5037 46.7552C88.7544 46.6775 89.0091 46.6386 89.2676 46.6386C89.9257 46.6386 90.4702 46.8505 90.9011 47.2742C91.3359 47.6979 91.5533 48.2227 91.5533 48.8485V52.4928H90.7131V51.7173C90.6974 51.7406 90.672 51.7736 90.6367 51.8164C90.6054 51.8553 90.5309 51.9272 90.4134 52.0321C90.2998 52.1332 90.1764 52.2245 90.0432 52.3062C89.91 52.3839 89.7338 52.4539 89.5144 52.5161C89.2989 52.5783 89.0756 52.6094 88.8445 52.6094C88.2687 52.6094 87.7829 52.4403 87.3873 52.1021C86.9956 51.7639 86.7997 51.3771 86.7997 50.9418C86.7997 50.4636 86.9446 50.0788 87.2345 49.7873C87.5244 49.4918 87.9416 49.2994 88.4861 49.21ZM88.8445 51.8339C89.389 51.8339 89.8356 51.657 90.1842 51.3033C90.5368 50.9495 90.7131 50.4908 90.7131 49.9272V49.5657L88.727 49.9272C88.0062 50.0633 87.6439 50.4014 87.64 50.9418C87.64 51.1983 87.7457 51.4121 87.9573 51.5831C88.1727 51.7503 88.4685 51.8339 88.8445 51.8339Z" fill="#1F1F1F" fill-opacity="0.6"/>
<path d="M93.1105 48.6736C93.1105 48.1255 93.3044 47.6707 93.6922 47.3092C94.0839 46.9438 94.5932 46.7611 95.2199 46.7611H97.682V52.4928H96.8417V50.5803H95.1553L93.9566 52.4928H92.993L94.315 50.4053C94.2837 50.3976 94.2387 50.3839 94.1799 50.3645C94.1251 50.3412 94.0291 50.2887 93.892 50.2071C93.7549 50.1216 93.6334 50.0205 93.5277 49.9039C93.4258 49.7834 93.3298 49.6162 93.2397 49.4024C93.1536 49.1886 93.1105 48.9457 93.1105 48.6736ZM96.8417 47.5366H95.2199C94.836 47.5366 94.5285 47.6435 94.2974 47.8573C94.0702 48.0672 93.9566 48.3393 93.9566 48.6736C93.9566 49.0079 94.0702 49.28 94.2974 49.4899C94.5246 49.6998 94.8321 49.8048 95.2199 49.8048H96.8417V47.5366Z" fill="#1F1F1F" fill-opacity="0.6"/>
<path d="M102.741 50.8835V52.4928H101.901V46.7611H102.741V49.8048L105.626 46.7611H106.655L104.428 49.0876L106.895 52.4928H105.932L103.887 49.6881L102.741 50.8835Z" fill="#1F1F1F" fill-opacity="0.6"/>
<path d="M108.576 46.7611H112.789V52.4928H111.943V47.5366H109.416V48.4345C109.416 49.278 109.373 49.9816 109.287 50.5453C109.205 51.105 109.079 51.5326 108.911 51.828C108.742 52.1196 108.556 52.3237 108.353 52.4403C108.149 52.553 107.902 52.6094 107.612 52.6094C107.514 52.6094 107.415 52.5997 107.313 52.5802C107.215 52.5608 107.142 52.5394 107.095 52.5161L107.013 52.4928V51.659C107.174 51.7367 107.334 51.7756 107.495 51.7756C107.742 51.7756 107.936 51.7056 108.077 51.5657C108.218 51.4257 108.335 51.1031 108.429 50.5977C108.527 50.0924 108.576 49.3713 108.576 48.4345V46.7611Z" fill="#1F1F1F" fill-opacity="0.6"/>
<path d="M119.041 46.7611H119.764V52.4928H118.918V48.1955L115.427 52.4928H114.711V46.7611H115.551V51.0584L119.041 46.7611Z" fill="#1F1F1F" fill-opacity="0.6"/>
<path d="M125.84 52.4928V49.9855H122.531V52.4928H121.691V46.7611H122.531V49.21H125.84V46.7611H126.686V52.4928H125.84Z" fill="#1F1F1F" fill-opacity="0.6"/>
<path d="M132.944 46.7611H133.666V52.4928H132.82V48.1955L129.33 52.4928H128.613V46.7611H129.453V51.0584L132.944 46.7611Z" fill="#1F1F1F" fill-opacity="0.6"/>
<path d="M136.434 50.8835V52.4928H135.594V46.7611H136.434V49.8048L139.319 46.7611H140.347L138.12 49.0876L140.588 52.4928H139.625L137.58 49.6881L136.434 50.8835Z" fill="#1F1F1F" fill-opacity="0.6"/>
<path d="M142.933 49.21L145.16 48.8485C145.16 48.4248 145.025 48.0808 144.754 47.8165C144.484 47.5521 144.137 47.42 143.714 47.42C143.409 47.42 143.121 47.4899 142.85 47.6299C142.584 47.7659 142.39 47.9059 142.269 48.0497L142.087 48.2538L141.546 47.7173C141.57 47.6862 141.601 47.6474 141.64 47.6007C141.683 47.5502 141.773 47.4647 141.91 47.3442C142.051 47.2198 142.198 47.109 142.351 47.0118C142.504 46.9146 142.704 46.8291 142.95 46.7552C143.201 46.6775 143.456 46.6386 143.714 46.6386C144.372 46.6386 144.917 46.8505 145.348 47.2742C145.783 47.6979 146 48.2227 146 48.8485V52.4928H145.16V51.7173C145.144 51.7406 145.119 51.7736 145.083 51.8164C145.052 51.8553 144.978 51.9272 144.86 52.0321C144.746 52.1332 144.623 52.2245 144.49 52.3062C144.357 52.3839 144.18 52.4539 143.961 52.5161C143.746 52.5783 143.522 52.6094 143.291 52.6094C142.715 52.6094 142.23 52.4403 141.834 52.1021C141.442 51.7639 141.246 51.3771 141.246 50.9418C141.246 50.4636 141.391 50.0788 141.681 49.7873C141.971 49.4918 142.388 49.2994 142.933 49.21ZM143.291 51.8339C143.836 51.8339 144.282 51.657 144.631 51.3033C144.983 50.9495 145.16 50.4908 145.16 49.9272V49.5657L143.174 49.9272C142.453 50.0633 142.091 50.4014 142.087 50.9418C142.087 51.1983 142.192 51.4121 142.404 51.5831C142.619 51.7503 142.915 51.8339 143.291 51.8339Z" fill="#1F1F1F" fill-opacity="0.6"/>
</svg>
