<svg width="30.000000" height="30.000000" viewBox="0 0 30 30" fill="none" xmlns="http://www.w3.org/2000/svg" xmlns:xlink="http://www.w3.org/1999/xlink">
	<desc>
			Created with Pixso.
	</desc>
	<defs>
		<clipPath id="clip53_6048">
			<rect id="Icon" width="30.000000" height="30.000000" fill="white" fill-opacity="0"/>
		</clipPath>
	</defs>
	<rect id="Icon" width="30.000000" height="30.000000" fill="#FFFFFF" fill-opacity="0"/>
	<g clip-path="url(#clip53_6048)">
		<path id="Vector" d="M20.37 9.96L20.37 5.42C20.37 3.81 19.05 2.5 17.44 2.5L12.55 2.5C10.94 2.5 9.62 3.81 9.62 5.42L9.62 9.96L20.37 9.96ZM13.77 5.86L14.26 5.86L14.26 5.38C14.26 4.97 14.59 4.64 15 4.64C15.4 4.64 15.73 4.97 15.73 5.38L15.73 5.86L16.22 5.86C16.62 5.86 16.95 6.19 16.95 6.6C16.95 7 16.62 7.33 16.22 7.33L15.73 7.33L15.73 7.82C15.73 8.22 15.4 8.55 15 8.55C14.59 8.55 14.26 8.22 14.26 7.82L14.26 7.33L13.77 7.33C13.37 7.33 13.04 7 13.04 6.6C13.04 6.19 13.37 5.86 13.77 5.86ZM15.69 17.63L14.3 17.63C11.72 17.63 9.62 15.54 9.62 12.96L9.62 11.42L20.37 11.42L20.37 12.96C20.37 15.54 18.27 17.63 15.69 17.63ZM20.06 17.27L24.29 19.92C26.29 21.17 27.5 23.36 27.5 25.71L27.5 27.5L2.5 27.5L2.5 25.71C2.5 23.36 3.7 21.17 5.7 19.92L9.93 17.27C9.94 17.28 9.95 17.29 9.96 17.3C10.05 17.39 10.14 17.47 10.23 17.56L10.23 21.51C9.37 21.8 8.75 22.62 8.75 23.59C8.75 24.8 9.73 25.79 10.94 25.79C12.15 25.79 13.14 24.8 13.14 23.59C13.14 22.64 12.54 21.83 11.7 21.53L11.7 18.52C12.5 18.9 13.39 19.1 14.3 19.1L15.69 19.1C16.6 19.1 17.47 18.9 18.27 18.53L18.27 21.34L17.39 21.34C16.45 21.34 15.68 22.11 15.68 23.05L15.68 24.32C15.68 24.99 16.23 25.54 16.9 25.54L17.63 25.54C18.04 25.54 18.36 25.21 18.36 24.81C18.36 24.41 18.04 24.08 17.63 24.08L17.14 24.08L17.14 23.05C17.14 22.92 17.25 22.81 17.39 22.81L20.51 22.81C20.65 22.81 20.76 22.92 20.76 23.05L20.76 24.08L20.27 24.08C19.86 24.08 19.54 24.41 19.54 24.81C19.54 25.21 19.86 25.54 20.27 25.54L21 25.54C21.67 25.54 22.22 24.99 22.22 24.32L22.22 23.05C22.22 22.11 21.46 21.34 20.51 21.34L19.73 21.34L19.73 17.58C19.83 17.49 19.93 17.4 20.03 17.3C20.04 17.29 20.05 17.28 20.06 17.27ZM11.67 23.59C11.67 23.99 11.35 24.32 10.94 24.32C10.54 24.32 10.21 23.99 10.21 23.59C10.21 23.18 10.54 22.86 10.94 22.86C11.35 22.86 11.67 23.18 11.67 23.59Z" fill="#FFFFFC" fill-opacity="1.000000" fill-rule="evenodd"/>
	</g>
</svg>
