<svg width="30.000000" height="30.000000" viewBox="0 0 30 30" fill="none" xmlns="http://www.w3.org/2000/svg" xmlns:xlink="http://www.w3.org/1999/xlink">
	<desc>
			Created with Pixso.
	</desc>
	<defs>
		<clipPath id="clip53_2">
			<rect id="Icon" width="30.000000" height="30.000000" fill="white" fill-opacity="0"/>
		</clipPath>
	</defs>
	<rect id="Icon" width="30.000000" height="30.000000" fill="#FFFFFF" fill-opacity="0"/>
	<g clip-path="url(#clip53_2)">
		<path id="Vector" d="M26.95 11.33L25.12 11.33C24.98 11.33 24.85 11.39 24.75 11.48L24.35 11.85C23.69 10.35 22.75 8.85 21.47 7.31C20.78 6.47 19.76 6 18.67 6L11.32 6C10.23 6 9.21 6.47 8.52 7.31C7.2 8.9 6.27 10.36 5.63 11.85L5.24 11.48C5.14 11.39 5.01 11.33 4.87 11.33L3.04 11.33C2.74 11.33 2.5 11.57 2.5 11.87L2.5 13.11C2.5 13.39 2.72 13.62 3 13.64L4.89 13.76C4.6 14.58 4.38 15.81 4.38 17.54C4.38 19.04 4.68 20.02 5.21 20.66L5.21 23.55C5.21 23.79 5.41 24 5.66 24L7.75 24C8 24 8.2 23.79 8.2 23.55L8.2 21.75L21.79 21.75L21.79 23.55C21.79 23.79 21.99 24 22.24 24L24.33 24C24.58 24 24.78 23.79 24.78 23.55L24.78 20.66C25.31 20.02 25.61 19.04 25.61 17.54C25.61 15.81 25.39 14.58 25.1 13.76L26.99 13.64C27.27 13.62 27.5 13.39 27.5 13.11L27.5 11.87C27.5 11.57 27.25 11.33 26.95 11.33ZM10.07 8.56C10.38 8.19 10.84 7.97 11.32 7.97L18.67 7.97C19.15 7.97 19.61 8.19 19.92 8.56C20.82 9.64 21.52 10.67 22.07 11.7L7.91 11.71C8.44 10.7 9.15 9.66 10.07 8.56ZM8.53 19.56C7.49 19.56 6.65 19.23 6.65 18.41C6.65 17.6 6.95 16.94 7.99 16.94C9.03 16.94 10.41 17.6 10.41 18.41C10.41 19.23 9.56 19.56 8.53 19.56ZM16.97 19.39L13.02 19.39C12.43 19.39 11.95 18.91 11.95 18.33C11.95 18.16 12.08 18.03 12.25 18.03L17.74 18.03C17.91 18.03 18.04 18.16 18.04 18.33C18.04 18.91 17.56 19.39 16.97 19.39ZM21.46 19.56C20.43 19.56 19.58 19.23 19.58 18.41C19.58 17.6 20.96 16.94 22 16.94C23.04 16.94 23.34 17.6 23.34 18.41C23.34 19.23 22.5 19.56 21.46 19.56Z" fill="#FFFFFC" fill-opacity="1.000000" fill-rule="nonzero"/>
	</g>
</svg>
