<svg width="30.000000" height="30.000000" viewBox="0 0 30 30" fill="none" xmlns="http://www.w3.org/2000/svg" xmlns:xlink="http://www.w3.org/1999/xlink">
	<desc>
			Created with Pixso.
	</desc>
	<defs>
		<clipPath id="clip57_3974">
			<rect id="Icon" width="30.000000" height="30.000000" fill="white" fill-opacity="0"/>
		</clipPath>
	</defs>
	<rect id="Icon" width="30.000000" height="30.000000" fill="#FFFFFF" fill-opacity="0"/>
	<g clip-path="url(#clip57_3974)">
		<path id="Vector" d="M20.75 5.46C21.64 6.09 22 7.16 22.32 8.81C22.42 9.34 22.56 10.08 22.7 10.83L7.29 10.83C7.43 10.08 7.57 9.34 7.67 8.81C7.99 7.16 8.35 6.09 9.24 5.46C10.21 4.77 11.72 4.86 12.68 5.66C12.74 5.71 12.8 5.76 12.87 5.81C13.46 6.32 14.19 6.94 15 6.94C15.8 6.94 16.53 6.32 17.12 5.81C17.19 5.76 17.25 5.71 17.31 5.66C18.27 4.86 19.78 4.77 20.75 5.46ZM25.56 13.36L23.16 13.36C23.11 13.07 23.04 12.69 22.96 12.27L7.03 12.27C6.95 12.69 6.88 13.07 6.83 13.36L4.43 13.36C3.36 13.36 2.5 14.22 2.5 15.27L2.5 15.28C2.5 16.33 3.36 17.19 4.43 17.19L25.56 17.19C26.63 17.19 27.5 16.33 27.5 15.28L27.5 15.27C27.5 14.22 26.63 13.36 25.56 13.36ZM19.51 17.91C18.15 17.91 16.97 18.66 16.35 19.75C16.01 19.65 15.55 19.57 14.98 19.57C14.42 19.57 13.97 19.65 13.63 19.74C13.01 18.65 11.83 17.91 10.48 17.91C8.49 17.91 6.88 19.5 6.88 21.45C6.88 23.41 8.49 25 10.48 25C12.47 25 14.08 23.41 14.08 21.45C14.08 21.34 14.08 21.23 14.07 21.12C14.29 21.06 14.59 21.01 14.98 21.01C15.38 21.01 15.7 21.07 15.92 21.13C15.91 21.23 15.91 21.34 15.91 21.45C15.91 23.41 17.52 25 19.51 25C21.5 25 23.11 23.41 23.11 21.45C23.11 19.5 21.5 17.91 19.51 17.91Z" fill="#FFFFFC" fill-opacity="1.000000" fill-rule="evenodd"/>
	</g>
</svg>
