<svg width="30.000000" height="30.000000" viewBox="0 0 30 30" fill="none" xmlns="http://www.w3.org/2000/svg" xmlns:xlink="http://www.w3.org/1999/xlink">
	<desc>
			Created with Pixso.
	</desc>
	<defs>
		<clipPath id="clip53_6075">
			<rect id="Icon" width="30.000000" height="30.000000" fill="white" fill-opacity="0"/>
		</clipPath>
	</defs>
	<rect id="Icon" width="30.000000" height="30.000000" fill="#FFFFFF" fill-opacity="0"/>
	<g clip-path="url(#clip53_6075)">
		<path id="Vector" d="M17.2 2.5L17.2 9.11C17.2 9.7 17.43 10.26 17.84 10.67C18.25 11.09 18.81 11.32 19.39 11.32L26 11.32L26 23.82C26 24.4 25.76 24.96 25.35 25.38C24.94 25.79 24.38 26.02 23.8 26.02L16.82 26.02C17.91 24.69 18.56 23.05 18.65 21.33C18.75 19.6 18.29 17.9 17.35 16.45C16.41 15.01 15.03 13.9 13.42 13.3C11.81 12.69 10.05 12.62 8.4 13.09L8.4 4.7C8.4 4.12 8.63 3.55 9.04 3.14C9.45 2.73 10.01 2.5 10.6 2.5L17.2 2.5ZM18.66 2.86L18.66 9.11C18.66 9.31 18.74 9.49 18.88 9.63C19.01 9.77 19.2 9.85 19.39 9.85L25.63 9.85L18.66 2.86ZM5.93 25.56C7.17 26.8 8.84 27.5 10.6 27.5C12.35 27.5 14.02 26.8 15.26 25.56C16.5 24.32 17.2 22.63 17.2 20.88C17.2 19.12 16.5 17.44 15.26 16.2C14.02 14.96 12.35 14.26 10.6 14.26C8.84 14.26 7.17 14.96 5.93 16.2C4.69 17.44 4 19.12 4 20.88C4 22.63 4.69 24.32 5.93 25.56ZM8 18.28C8.14 18.14 8.33 18.06 8.52 18.06C8.71 18.06 8.9 18.14 9.04 18.28L10.59 19.84L12.15 18.28C12.22 18.21 12.3 18.15 12.39 18.11C12.48 18.07 12.57 18.05 12.67 18.05C12.77 18.05 12.87 18.07 12.96 18.11C13.05 18.14 13.13 18.2 13.2 18.27C13.27 18.34 13.32 18.42 13.36 18.51C13.39 18.6 13.41 18.7 13.41 18.79C13.41 18.89 13.39 18.99 13.35 19.08C13.31 19.17 13.26 19.25 13.19 19.32L11.63 20.88L13.19 22.44C13.25 22.5 13.31 22.59 13.35 22.67C13.38 22.76 13.4 22.86 13.4 22.96C13.4 23.05 13.38 23.15 13.35 23.24C13.31 23.33 13.26 23.41 13.19 23.48C13.12 23.54 13.04 23.6 12.95 23.64C12.86 23.67 12.77 23.69 12.67 23.69C12.57 23.69 12.48 23.67 12.39 23.64C12.3 23.6 12.22 23.55 12.15 23.48L10.6 21.92L9.04 23.48C8.97 23.55 8.89 23.6 8.8 23.64C8.71 23.67 8.62 23.69 8.52 23.69C8.42 23.69 8.33 23.67 8.24 23.64C8.15 23.6 8.07 23.55 8 23.48C7.93 23.41 7.88 23.33 7.84 23.24C7.81 23.15 7.79 23.05 7.79 22.96C7.79 22.86 7.81 22.76 7.84 22.68C7.88 22.59 7.93 22.5 8 22.44L9.56 20.88L8 19.32C7.93 19.25 7.88 19.17 7.84 19.08C7.81 18.99 7.79 18.89 7.79 18.8C7.79 18.7 7.81 18.61 7.84 18.52C7.88 18.43 7.93 18.35 8 18.28Z" fill="#FFFFFC" fill-opacity="1.000000" fill-rule="nonzero"/>
	</g>
</svg>
