<svg width="30.000000" height="30.000000" viewBox="0 0 30 30" fill="none" xmlns="http://www.w3.org/2000/svg" xmlns:xlink="http://www.w3.org/1999/xlink">
	<desc>
			Created with Pixso.
	</desc>
	<defs>
		<clipPath id="clip53_6102">
			<rect id="Icon" width="30.000000" height="30.000000" fill="white" fill-opacity="0"/>
		</clipPath>
	</defs>
	<rect id="Icon" width="30.000000" height="30.000000" fill="#FFFFFF" fill-opacity="0"/>
	<g clip-path="url(#clip53_6102)">
		<path id="Vector" d="M21.24 20.2L21.24 5.62C21.24 3.9 19.84 2.5 18.12 2.5L5.62 2.5C3.9 2.5 2.5 3.9 2.5 5.62L2.5 21.09C2.5 21.92 2.95 22.67 3.68 23.06C4.01 23.24 4.37 23.33 4.74 23.33C5.17 23.33 5.6 23.2 5.98 22.95L10.1 20.2L21.24 20.2ZM12.91 17.08L10.83 17.08L10.83 14.99L12.91 14.99L12.91 17.08ZM9.86 6.35C10.57 5.75 11.5 5.5 12.43 5.67C13.69 5.89 14.72 6.92 14.95 8.19C15.18 9.51 14.55 10.84 13.38 11.48C12.91 11.74 12.91 11.99 12.91 12.39L12.91 12.91L10.83 12.91L10.83 11.87C10.83 10.51 11.91 9.91 12.37 9.66C12.67 9.49 12.99 9.1 12.89 8.55C12.82 8.14 12.47 7.79 12.07 7.72C11.75 7.66 11.44 7.74 11.2 7.95C10.96 8.14 10.83 8.44 10.83 8.75L8.74 8.75C8.74 7.82 9.15 6.95 9.86 6.35L9.86 6.35ZM27.49 9.79L27.49 25.26C27.49 26.08 27.04 26.84 26.31 27.23C25.98 27.41 25.62 27.49 25.25 27.5C24.82 27.5 24.39 27.37 24.02 27.12L19.89 24.37L8.75 24.37L8.75 23.61L10.73 22.28L23.33 22.28L23.33 6.66L24.37 6.66C26.09 6.66 27.49 8.06 27.49 9.79Z" fill="#FFFFFC" fill-opacity="1.000000" fill-rule="nonzero"/>
	</g>
</svg>
