<svg width="30.000000" height="30.000000" viewBox="0 0 30 30" fill="none" xmlns="http://www.w3.org/2000/svg" xmlns:xlink="http://www.w3.org/1999/xlink">
	<desc>
			Created with Pixso.
	</desc>
	<defs>
		<clipPath id="clip41_448">
			<rect id="Icon" width="30.000000" height="30.000000" fill="white" fill-opacity="0"/>
		</clipPath>
		<clipPath id="clip41_450">
			<rect id="Icon" width="30.000000" height="30.000000" fill="white" fill-opacity="0"/>
		</clipPath>
		<clipPath id="clip41_454">
			<rect id="Icon" width="30.000000" height="30.000000" fill="white" fill-opacity="0"/>
		</clipPath>
		<clipPath id="clip41_456">
			<rect id="Icon" width="30.000000" height="30.000000" fill="white" fill-opacity="0"/>
		</clipPath>
		<clipPath id="clip41_458">
			<rect id="Icon" width="30.000000" height="30.000000" fill="white" fill-opacity="0"/>
		</clipPath>
	</defs>
	<rect id="Icon" width="30.000000" height="30.000000" fill="#FFFFFF" fill-opacity="0"/>
	<g clip-path="url(#clip41_454)">
		<path id="Vector" d="M17.81 23.25L15.01 26L4.6 15.79C3.91 15.13 3.37 14.33 3.01 13.45C2.65 12.58 2.47 11.63 2.5 10.68C2.52 9.74 2.75 8.8 3.15 7.95C3.56 7.09 4.14 6.32 4.86 5.7C5.58 5.07 6.43 4.6 7.34 4.31C8.26 4.03 9.22 3.93 10.17 4.03C11.12 4.13 12.05 4.43 12.88 4.9C13.71 5.37 14.43 6.01 15.01 6.77C16.09 5.34 17.7 4.38 19.48 4.1C21.27 3.83 23.1 4.25 24.57 5.29C26.05 6.33 27.05 7.89 27.38 9.65C27.71 11.41 27.33 13.23 26.32 14.71L17.81 23.25ZM17.1 22.56L17.1 22.53C17.5 22.14 18.13 22.15 18.52 22.55C18.91 22.95 18.91 23.57 18.51 23.96L18.48 23.96L17.1 22.56ZM27.15 15.25L27.15 15.27C26.84 15.74 26.23 15.86 25.76 15.54C25.3 15.23 25.18 14.62 25.49 14.15L25.52 14.15L27.15 15.25Z" fill="#1F587A" fill-opacity="1.000000" fill-rule="nonzero"/>
		<path id="Vector" d="M17.81 23.25L15.01 26L4.6 15.79C3.91 15.13 3.37 14.33 3.01 13.45C2.65 12.58 2.47 11.63 2.5 10.68C2.52 9.74 2.75 8.8 3.15 7.95C3.56 7.09 4.14 6.32 4.86 5.7C5.58 5.07 6.43 4.6 7.34 4.31C8.26 4.03 9.22 3.93 10.17 4.03C11.12 4.13 12.05 4.43 12.88 4.9C13.71 5.37 14.43 6.01 15.01 6.77C16.09 5.34 17.7 4.38 19.48 4.1C21.27 3.83 23.1 4.25 24.57 5.29C26.05 6.33 27.05 7.89 27.38 9.65C27.71 11.41 27.33 13.23 26.32 14.71" stroke="#1F587A" stroke-opacity="1.000000" stroke-width="2.000000" stroke-linejoin="round" stroke-linecap="round"/>
		<path id="Vector" d="M20.54 25.99L26.37 20.19C27.09 19.47 27.49 18.5 27.49 17.48C27.49 16.46 27.09 15.49 26.37 14.77C26.02 14.41 25.59 14.13 25.13 13.93C24.66 13.74 24.16 13.64 23.66 13.64C23.15 13.64 22.65 13.74 22.19 13.93C21.72 14.12 21.3 14.4 20.94 14.76L20.55 15.15L20.17 14.76C19.81 14.4 19.39 14.12 18.92 13.92C18.46 13.73 17.96 13.63 17.45 13.63C16.95 13.63 16.45 13.73 15.98 13.92C15.52 14.11 15.09 14.39 14.74 14.75C14.02 15.47 13.61 16.44 13.61 17.46C13.61 18.47 14.01 19.45 14.73 20.17L20.53 25.99L20.54 25.99Z" fill="#1F587A" fill-opacity="1.000000" fill-rule="nonzero"/>
		<path id="Vector" d="M26.37 20.19C27.09 19.47 27.49 18.5 27.49 17.48C27.49 16.46 27.09 15.49 26.37 14.77C26.02 14.41 25.59 14.13 25.13 13.93C24.66 13.74 24.16 13.64 23.66 13.64C23.15 13.64 22.65 13.74 22.19 13.93C21.72 14.12 21.3 14.4 20.94 14.76L20.55 15.15L20.17 14.76C19.81 14.4 19.39 14.12 18.92 13.92C18.46 13.73 17.96 13.63 17.45 13.63C16.95 13.63 16.45 13.73 15.98 13.92C15.52 14.11 15.09 14.39 14.74 14.75C14.02 15.47 13.61 16.44 13.61 17.46C13.61 18.47 14.01 19.45 14.73 20.17L20.53 25.99L20.54 25.99L26.37 20.19Z" stroke="#FFFFFF" stroke-opacity="1.000000" stroke-width="2.000000" stroke-linejoin="round"/>
	</g>
</svg>
