<svg width="30.000000" height="30.000000" viewBox="0 0 30 30" fill="none" xmlns="http://www.w3.org/2000/svg" xmlns:xlink="http://www.w3.org/1999/xlink">
	<desc>
			Created with Pixso.
	</desc>
	<defs>
		<clipPath id="clip41_434">
			<rect id="Icon" width="30.000000" height="30.000000" fill="white" fill-opacity="0"/>
		</clipPath>
		<clipPath id="clip41_436">
			<rect id="Icon" width="30.000000" height="30.000000" fill="white" fill-opacity="0"/>
		</clipPath>
		<clipPath id="clip41_440">
			<rect id="Icon" width="30.000000" height="30.000000" fill="white" fill-opacity="0"/>
		</clipPath>
		<clipPath id="clip41_442">
			<rect id="Icon" width="30.000000" height="30.000000" fill="white" fill-opacity="0"/>
		</clipPath>
		<clipPath id="clip41_444">
			<rect id="Icon" width="30.000000" height="30.000000" fill="white" fill-opacity="0"/>
		</clipPath>
	</defs>
	<rect id="Icon" width="30.000000" height="30.000000" fill="#FFFFFF" fill-opacity="0"/>
	<g clip-path="url(#clip41_436)">
		<path id="Vector" d="M21.24 4.17C23.15 5.27 24.72 6.85 25.82 8.75C26.92 10.65 27.49 12.8 27.49 15C27.49 17.19 26.92 19.35 25.82 21.25C24.72 23.15 23.14 24.72 21.24 25.82C19.34 26.92 17.19 27.5 14.99 27.5C12.8 27.5 10.64 26.92 8.74 25.82C6.84 24.72 5.27 23.14 4.17 21.25C3.07 19.34 2.5 17.19 2.5 15L2.5 14.59C2.57 12.43 3.2 10.33 4.32 8.48C5.45 6.64 7.03 5.12 8.92 4.07C10.81 3.02 12.94 2.48 15.1 2.5C17.26 2.51 19.37 3.09 21.24 4.17ZM15 7.5C14.66 7.5 14.35 7.63 14.11 7.86C13.88 8.1 13.75 8.41 13.75 8.75L13.75 15.03L13.76 15.16L13.78 15.29L13.83 15.45L13.89 15.58L13.95 15.68L14 15.75L14.09 15.85L14.2 15.96L14.3 16.03L18.05 18.53C18.19 18.63 18.34 18.69 18.5 18.72C18.66 18.75 18.83 18.75 18.99 18.72C19.15 18.69 19.3 18.62 19.44 18.53C19.58 18.44 19.69 18.33 19.78 18.19C19.88 18.05 19.94 17.9 19.97 17.74C20 17.58 20 17.41 19.97 17.25C19.94 17.09 19.88 16.94 19.78 16.8C19.69 16.66 19.58 16.55 19.44 16.45L16.25 14.32L16.25 8.75C16.24 8.44 16.13 8.14 15.93 7.91C15.73 7.69 15.45 7.54 15.14 7.5L15 7.5Z" fill="#1F587A" fill-opacity="1.000000" fill-rule="nonzero"/>
	</g>
</svg>
