<svg width="30.000000" height="30.000000" viewBox="0 0 30 30" fill="none" xmlns="http://www.w3.org/2000/svg" xmlns:xlink="http://www.w3.org/1999/xlink">
	<desc>
			Created with Pixso.
	</desc>
	<defs>
		<clipPath id="clip41_406">
			<rect id="Icon" width="30.000000" height="30.000000" fill="white" fill-opacity="0"/>
		</clipPath>
		<clipPath id="clip41_408">
			<rect id="Icon" width="30.000000" height="30.000000" fill="white" fill-opacity="0"/>
		</clipPath>
		<clipPath id="clip41_412">
			<rect id="Icon" width="30.000000" height="30.000000" fill="white" fill-opacity="0"/>
		</clipPath>
		<clipPath id="clip41_414">
			<rect id="Icon" width="30.000000" height="30.000000" fill="white" fill-opacity="0"/>
		</clipPath>
		<clipPath id="clip41_416">
			<rect id="Icon" width="30.000000" height="30.000000" fill="white" fill-opacity="0"/>
		</clipPath>
	</defs>
	<rect id="Icon" width="30.000000" height="30.000000" fill="#FFFFFF" fill-opacity="0"/>
	<g clip-path="url(#clip41_414)">
		<path id="Vector" d="M23.39 4C24.83 4 26.21 4.54 27.25 5.51C28.3 6.48 28.92 7.81 28.99 9.22L29 9.5L29 20.5C29 21.91 28.44 23.26 27.45 24.29C26.46 25.31 25.11 25.92 23.67 25.99L23.39 26L6.6 26C5.16 26 3.78 25.45 2.74 24.48C1.69 23.51 1.07 22.18 1 20.77L1 20.5L1 9.5C1 8.08 1.55 6.73 2.54 5.7C3.53 4.68 4.88 4.07 6.32 4L6.6 4L23.39 4ZM15.7 10.87L15.44 10.88C14.14 10.95 13.03 11.68 12.2 12.86C11.41 11.75 10.39 11.04 9.2 10.9L8.92 10.87L8.69 10.87L8.47 10.88C6.68 11 5.19 12.5 5.19 14.31C5.19 15.99 6.91 17.35 8.63 17.67L8.85 17.71L7.01 19.52L6.89 19.65C6.7 19.89 6.6 20.19 6.6 20.5C6.6 20.8 6.7 21.1 6.89 21.34L7.01 21.47L7.14 21.58C7.38 21.77 7.68 21.87 8 21.87C8.31 21.87 8.61 21.77 8.85 21.58L8.98 21.47L12.2 18.32L15.41 21.47L15.54 21.58C15.81 21.79 16.14 21.89 16.48 21.87C16.82 21.85 17.14 21.7 17.38 21.47C17.63 21.23 17.77 20.91 17.79 20.58C17.81 20.25 17.71 19.92 17.5 19.65L17.38 19.52L15.54 17.71C17.26 17.48 19.04 16.18 19.19 14.52L19.2 14.31L19.19 14.08C19.08 12.45 17.76 11.11 16.14 10.9L15.92 10.88L15.7 10.87ZM15.67 13.62L15.81 13.63C16.08 13.69 16.33 13.92 16.38 14.19L16.39 14.31L16.38 14.35L16.33 14.41C16.15 14.59 15.61 14.91 15.16 14.98L15 15L14.15 15L14.23 14.86L14.35 14.64C14.73 14.03 15.15 13.69 15.54 13.63L15.67 13.62ZM8.72 13.62L8.84 13.63L8.97 13.65C9.33 13.76 9.7 14.09 10.04 14.64L10.17 14.86L10.24 15L9.39 15L9.25 14.98C8.69 14.91 8 14.43 8 14.31C8 13.99 8.27 13.69 8.58 13.63L8.72 13.62Z" fill="#1F587A" fill-opacity="1.000000" fill-rule="nonzero"/>
	</g>
</svg>
