<svg width="30.000000" height="30.000000" viewBox="0 0 30 30" fill="none" xmlns="http://www.w3.org/2000/svg" xmlns:xlink="http://www.w3.org/1999/xlink">
	<desc>
			Created with Pixso.
	</desc>
	<defs>
		<clipPath id="clip41_392">
			<rect id="Icon" width="30.000000" height="30.000000" fill="white" fill-opacity="0"/>
		</clipPath>
		<clipPath id="clip41_394">
			<rect id="Icon" width="30.000000" height="30.000000" fill="white" fill-opacity="0"/>
		</clipPath>
		<clipPath id="clip41_398">
			<rect id="Icon" width="30.000000" height="30.000000" fill="white" fill-opacity="0"/>
		</clipPath>
		<clipPath id="clip41_400">
			<rect id="Icon" width="30.000000" height="30.000000" fill="white" fill-opacity="0"/>
		</clipPath>
		<clipPath id="clip41_402">
			<rect id="Icon" width="30.000000" height="30.000000" fill="white" fill-opacity="0"/>
		</clipPath>
	</defs>
	<rect id="Icon" width="30.000000" height="30.000000" fill="#FFFFFF" fill-opacity="0"/>
	<g clip-path="url(#clip41_402)">
		<path id="Vector" d="M18.49 25.01L16.42 27.08C15.64 27.86 14.37 27.86 13.59 27.08L2.52 15.97C1.69 15.16 1.04 14.18 0.61 13.1C0.18 12.03 -0.03 10.87 0 9.7C0.03 8.54 0.3 7.4 0.78 6.34C1.27 5.29 1.97 4.35 2.84 3.58C3.7 2.82 4.72 2.24 5.81 1.89C6.91 1.54 8.06 1.42 9.21 1.54C10.35 1.67 11.46 2.03 12.46 2.61C13.16 3.01 13.81 3.53 14.36 4.12C14.74 3.8 15.28 3.8 15.66 4.13C16.22 3.54 16.86 3.03 17.57 2.62C18.56 2.05 19.67 1.7 20.81 1.58C21.95 1.46 23.1 1.58 24.19 1.93C25.28 2.28 26.29 2.86 27.16 3.62C28.02 4.39 28.71 5.32 29.2 6.37C29.69 7.42 29.96 8.56 29.99 9.72C30.02 10.88 29.82 12.04 29.39 13.11C29.1 13.85 28.71 14.54 28.23 15.16C28.43 15.37 28.52 15.64 28.5 15.91C28.52 16.18 28.42 16.46 28.21 16.68L28.21 16.68L28.21 16.69C27.81 17.08 27.19 17.08 26.79 16.68L26.79 16.68L24.08 19.4C24.44 19.8 24.43 20.39 24.04 20.77C23.66 21.15 23.07 21.16 22.67 20.81L19.9 23.59C20.28 23.99 20.27 24.6 19.88 24.99C19.49 25.38 18.88 25.38 18.49 25.01Z" fill="#1F587A" fill-opacity="1.000000" fill-rule="evenodd"/>
		<path id="Vector" d="M27.5 15.97L16.42 27.08C15.64 27.86 14.37 27.86 13.59 27.08L2.52 15.97C1.69 15.16 1.04 14.18 0.61 13.1C0.18 12.03 -0.03 10.87 0 9.7C0.03 8.54 0.3 7.4 0.78 6.34C1.27 5.29 1.97 4.35 2.84 3.58C3.7 2.82 4.72 2.24 5.81 1.89C6.91 1.54 8.06 1.42 9.21 1.54C10.35 1.67 11.46 2.03 12.46 2.61C13.45 3.18 14.32 3.96 15.01 4.9C15.7 3.97 16.57 3.2 17.57 2.62C18.56 2.05 19.67 1.7 20.81 1.58C21.95 1.46 23.1 1.58 24.19 1.93C25.28 2.28 26.29 2.86 27.16 3.62C28.02 4.39 28.71 5.32 29.2 6.37C29.69 7.42 29.96 8.56 29.99 9.72C30.02 10.88 29.82 12.04 29.39 13.11C28.96 14.19 28.32 15.17 27.5 15.98M15.01 4.89L9.52 10.44C9.21 10.76 9.04 11.18 9.04 11.63C9.04 12.08 9.21 12.51 9.52 12.82L10.43 13.74C11.58 14.9 13.44 14.9 14.59 13.74L16.26 12.05C17.25 11.05 18.6 10.48 20.01 10.48C21.41 10.48 22.76 11.05 23.75 12.05L27.5 15.85M15.84 20.91L19.17 24.28M20.01 16.69L23.34 20.06" stroke="#FFFFFF" stroke-opacity="1.000000" stroke-width="2.000000" stroke-linejoin="round"/>
	</g>
</svg>
