<svg width="16.000000" height="16.000000" viewBox="0 0 16 16" fill="none" xmlns="http://www.w3.org/2000/svg" xmlns:xlink="http://www.w3.org/1999/xlink">
	<desc>
			Created with Pixso.
	</desc>
	<defs/>
	<path id="Vector" d="M12.29 16C9.03 15.99 5.91 14.69 3.6 12.38C1.3 10.07 0 6.94 0 3.68C0 2.7 0.38 1.76 1.07 1.07C1.76 0.38 2.69 0 3.67 0C3.87 -0.01 4.08 0.01 4.28 0.05C4.48 0.08 4.67 0.13 4.86 0.2C4.99 0.24 5.11 0.32 5.2 0.43C5.29 0.53 5.35 0.66 5.38 0.8L6.47 5.6C6.5 5.73 6.5 5.86 6.46 5.99C6.42 6.12 6.36 6.24 6.26 6.33C6.16 6.44 6.15 6.45 5.17 6.96C5.95 8.69 7.33 10.08 9.06 10.87C9.58 9.88 9.58 9.87 9.7 9.77C9.79 9.68 9.91 9.61 10.04 9.57C10.16 9.54 10.3 9.53 10.43 9.56L15.22 10.66C15.35 10.69 15.47 10.75 15.58 10.84C15.68 10.94 15.75 11.05 15.8 11.18C15.86 11.37 15.91 11.56 15.95 11.76C15.98 11.96 16 12.17 16 12.37C15.98 13.34 15.58 14.27 14.89 14.95C14.19 15.63 13.26 16 12.29 16Z" fill="#1F587A" fill-opacity="1.000000" fill-rule="nonzero"/>
</svg>
