<svg width="22" height="22" viewBox="0 0 22 22" fill="none" xmlns="http://www.w3.org/2000/svg">
<path d="M18.4374 14.9393L15.0548 12.8173C15.0465 12.8257 15.0384 12.8342 15.0301 12.8426C14.9519 12.9207 14.8714 12.9957 14.789 13.0679V16.0781H15.414C16.1679 16.0781 16.7812 16.6914 16.7812 17.4453V18.4609C16.7812 18.9994 16.3431 19.4375 15.8046 19.4375H15.2187C14.8951 19.4375 14.6328 19.1752 14.6328 18.8516C14.6328 18.528 14.8951 18.2656 15.2187 18.2656H15.6093V17.4453C15.6093 17.3376 15.5217 17.25 15.414 17.25H12.914C12.8063 17.25 12.7187 17.3376 12.7187 17.4453V18.2656H13.1093C13.4329 18.2656 13.6953 18.528 13.6953 18.8516C13.6953 19.1752 13.4329 19.4375 13.1093 19.4375H12.5234C11.9849 19.4375 11.5468 18.9994 11.5468 18.4609V17.4453C11.5468 16.6914 12.1602 16.0781 12.914 16.0781H13.6171V13.8308C12.9796 14.1256 12.2803 14.2812 11.5569 14.2812H10.443C9.71231 14.2812 9.00601 14.1225 8.36324 13.8218V16.2247C9.03508 16.472 9.51559 17.1184 9.51559 17.875C9.51559 18.8443 8.72703 19.6328 7.75777 19.6328C6.78852 19.6328 5.99996 18.8443 5.99996 17.875C5.99996 17.1039 6.49926 16.4477 7.19137 16.2114V13.0506C7.11582 12.9837 7.04184 12.9146 6.96984 12.8426C6.96148 12.8343 6.95344 12.8257 6.94512 12.8173L3.5625 14.9393C1.96805 15.9396 1 17.6896 1 19.572V21H21V19.572C21 17.6896 20.032 15.9396 18.4374 14.9393Z" fill="#1F587A"/>
<path d="M7.75781 18.4609C8.0809 18.4609 8.34375 18.1981 8.34375 17.875C8.34375 17.5519 8.0809 17.2891 7.75781 17.2891C7.43473 17.2891 7.17188 17.5519 7.17188 17.875C7.17188 18.1981 7.43473 18.4609 7.75781 18.4609Z" fill="#1F587A"/>
<path d="M6.70312 6.97105H15.2969V3.34375C15.2969 2.04934 14.2475 1 12.9531 1H9.04688C7.75246 1 6.70312 2.04934 6.70312 3.34375V6.97105ZM10.0234 3.69531H10.4141V3.30469C10.4141 2.98109 10.6764 2.71875 11 2.71875C11.3236 2.71875 11.5859 2.98109 11.5859 3.30469V3.69531H11.9766C12.3002 3.69531 12.5625 3.95766 12.5625 4.28125C12.5625 4.60484 12.3002 4.86719 11.9766 4.86719H11.5859V5.25781C11.5859 5.58141 11.3236 5.84375 11 5.84375C10.6764 5.84375 10.4141 5.58141 10.4141 5.25781V4.86719H10.0234C9.69984 4.86719 9.4375 4.60484 9.4375 4.28125C9.4375 3.95766 9.69984 3.69531 10.0234 3.69531Z" fill="#1F587A"/>
<path d="M10.4431 13.1094H11.557C13.6225 13.1094 15.2969 11.435 15.2969 9.36942V8.14293H6.70312V9.36942C6.70312 11.435 8.37754 13.1094 10.4431 13.1094Z" fill="#1F587A"/>
</svg>
