<svg width="22" height="22" viewBox="0 0 22 22" fill="none" xmlns="http://www.w3.org/2000/svg">
<path d="M4.003 9.229L4 9.043L4.001 8.93L4.009 8.859L5.009 1.859C5.04013 1.63979 5.14312 1.43711 5.30184 1.28274C5.46055 1.12837 5.66601 1.03103 5.886 1.006L5.999 1H15.999C16.2203 0.999882 16.4353 1.07315 16.6105 1.20832C16.7856 1.34349 16.911 1.53294 16.967 1.747L16.989 1.859L17.995 8.909L17.999 9C17.999 12.226 15.439 14.564 11.999 14.945V19H14.999C15.2539 19.0003 15.499 19.0979 15.6844 19.2728C15.8697 19.4478 15.9812 19.687 15.9962 19.9414C16.0111 20.1958 15.9283 20.4464 15.7647 20.6418C15.6011 20.8373 15.3691 20.9629 15.116 20.993L14.999 21H6.999C6.74412 20.9997 6.49897 20.9021 6.31363 20.7272C6.1283 20.5522 6.01677 20.313 6.00183 20.0586C5.98689 19.8042 6.06967 19.5536 6.23326 19.3582C6.39686 19.1627 6.6289 19.0371 6.882 19.007L6.999 19H9.999V14.945C6.641 14.574 4.121 12.336 4.003 9.229ZM15.132 3H6.865L6.258 7.258C7.11673 6.99759 8.02295 6.93311 8.9099 7.06931C9.79686 7.20551 10.642 7.53893 11.383 8.045L11.599 8.2C12.2133 8.66095 12.9474 8.9353 13.7134 8.99028C14.4795 9.04525 15.2452 8.87852 15.919 8.51L15.132 3Z" fill="#1F587A"/>
</svg>
